<svg width="36" height="29" viewBox="0 0 36 29" fill="none" xmlns="http://www.w3.org/2000/svg">
<g id="Group 2919">
<path id="&#226;&#128;&#156;" d="M8.66166 28.7793C6.4657 28.7793 4.59507 27.9144 3.04976 26.1847C1.58578 24.455 0.772462 22.462 0.609797 20.2059C0.365802 17.4233 0.528468 15.0543 1.09779 13.099C1.74845 11.0684 2.76509 9.11311 4.14774 7.23298C5.28639 5.50326 6.7097 3.99915 8.41767 2.72066C10.207 1.44217 12.1183 0.614916 14.1516 0.23889C15.2902 -0.212345 15.8595 -0.0243322 15.8595 0.802929V5.20244C15.8595 5.80408 15.7782 6.21771 15.6156 6.44332C15.5342 6.59373 15.3716 6.74414 15.1276 6.89455C11.9556 8.17304 10.1663 10.3916 9.75965 13.5502C11.3863 13.9262 12.9723 14.7159 14.5176 15.9192C16.0629 17.0473 16.8355 18.6266 16.8355 20.6571C16.8355 23.0637 16.0629 25.019 14.5176 26.5231C12.9723 28.0272 11.0203 28.7793 8.66166 28.7793ZM27.4493 28.7793C25.1721 28.7793 23.2608 27.9144 21.7154 26.1847C20.2515 24.455 19.4381 22.462 19.2755 20.2059C19.0315 17.4233 19.2348 15.0543 19.8855 13.099C20.5361 11.0684 21.5528 9.11311 22.9354 7.23298C24.0741 5.50326 25.4974 3.99915 27.2054 2.72066C28.9133 1.44217 30.8246 0.614916 32.9393 0.23889C34.0779 -0.212345 34.6472 -0.0243322 34.6472 0.802929V5.20244C34.6472 5.80408 34.5659 6.21771 34.4032 6.44332C34.3219 6.59373 34.1186 6.74414 33.7932 6.89455C32.3293 7.4962 31.1093 8.39866 30.1333 9.60195C29.1573 10.73 28.6287 12.0461 28.5473 13.5502C30.174 13.9262 31.7193 14.7159 33.1833 15.9192C34.7286 17.0473 35.5012 18.6266 35.5012 20.6571C35.5012 23.0637 34.7286 25.019 33.1833 26.5231C31.7193 28.0272 29.808 28.7793 27.4493 28.7793Z" fill="#00BBF5"/>
</g>
</svg>
