<svg width="480" height="335" viewBox="0 0 480 335" fill="none" xmlns="http://www.w3.org/2000/svg">
<g filter="url(#filter0_d_486_653)">
<path d="M91 16.4219C91 7.35232 98.3523 0 107.422 0H458.85C467.92 0 475.272 7.35232 475.272 16.4219V72.2562C475.272 81.3258 467.92 88.6781 458.85 88.6781H107.422C98.3523 88.6781 91 81.3258 91 72.2562V16.4219Z" fill="white"/>
<path d="M447.765 71.4352H384.13C389.385 102.637 428.743 114.543 447.765 116.595C427.402 101.159 439.281 80.0566 447.765 71.4352Z" fill="white"/>
</g>
<g filter="url(#filter1_d_486_653)">
<path d="M388.271 133.018C388.271 123.949 380.919 116.596 371.85 116.596H20.4215C11.3519 116.596 3.9996 123.949 3.9996 133.018V278C3.9996 287.07 11.3519 294.422 20.4215 294.422H371.85C380.919 294.422 388.271 287.07 388.271 278V133.018Z" fill="#0066FF"/>
<path d="M31.5063 278.84H95.141C89.886 310.041 50.5283 321.947 31.5063 324C51.8694 308.563 39.9909 287.461 31.5063 278.84Z" fill="#0066FF"/>
</g>
<path d="M143.93 36.4717V37.9756H137.758V43.21C140.863 43.2002 142.709 43.1123 144.848 42.6826L145.023 44.1865C142.719 44.6357 140.727 44.7432 137.25 44.7529H135.922V36.4717H143.93ZM138.012 52.6436V46.335H149.555V52.6436H138.012ZM139.848 51.1396H147.738V47.7998H139.848V51.1396ZM142.953 41.0811V39.5576H147.699V35.3779H149.555V45.4951H147.699V41.0811H142.953ZM167.172 35.3975V44.5381H165.414V35.3975H167.172ZM152.992 43.7959V36.3936H154.75V38.5811H158.129V36.3936H159.848V39.2451H161.918V35.7295H163.656V44.4404H161.918V40.7686H159.848V43.7959H152.992ZM154.75 42.3311H158.129V39.9873H154.75V42.3311ZM155.434 46.7842V45.3193H167.172V49.6162H157.328V51.2568H167.836V52.7021H155.473V48.2295H165.336V46.7842H155.434ZM189.34 35.3779V48.6592H187.582V35.3779H189.34ZM175.16 45.417V36.7646H176.918V39.6357H180.297V36.7646H182.016V40.3779H184.164V35.6904H185.922V48.1123H184.164V41.8818H182.016V45.417H175.16ZM176.918 43.9131H180.297V41.0615H176.918V43.9131ZM177.738 52.5068V46.8623H179.574V51.0029H189.848V52.5068H177.738ZM206.195 35.3779V52.8779H204.34V35.3779H206.195ZM191.957 48.0928C194.662 46.8818 196.459 43.9326 196.469 41.0029V39.8506H192.484V38.3662H196.449V35.7295H198.285V38.3662H202.211V39.8506H198.285V41.0029C198.295 43.7959 200.131 46.6475 202.855 47.7998L201.84 49.2256C199.818 48.3467 198.217 46.5205 197.406 44.3135C196.615 46.6572 195.023 48.6006 192.992 49.5186L191.957 48.0928ZM225.004 49.1279V50.6904H208.988V49.1279H225.004ZM210.355 38.5811V37.0576H223.539V38.5811H220.863V44.4209H223.48V45.9053H210.395V44.4209H213.012V38.5811H210.355ZM214.848 44.4209H219.047V38.5811H214.848V44.4209ZM233.051 37.2529V43.4834H228.617V47.0771C230.521 47.0674 232.338 46.9893 234.496 46.6084L234.652 48.1318C232.221 48.5713 230.229 48.6201 228.031 48.6396H226.82V41.999H231.273V38.7568H226.801V37.2529H233.051ZM233.871 43.0732V41.5693H235.941V35.7686H237.699V51.9795H235.941V43.0732H233.871ZM239.516 52.8779V35.3779H241.293V52.8779H239.516ZM252.445 37.8584C252.445 40.71 255.482 43.4053 258.852 44.0107L257.992 45.5537C255.189 44.9482 252.621 43.1123 251.488 40.6514C250.336 43.1025 247.768 44.9287 244.965 45.5537L244.145 44.0107C247.465 43.3857 250.482 40.71 250.492 37.8584V36.5303H252.445V37.8584ZM243.559 50.5732V49.0303H259.574V50.5732H243.559ZM274.477 35.3779V42.4678H277.289V44.0107H274.477V52.8779H272.641V35.3779H274.477ZM260.746 39.6357V38.1123H265.062V35.6123H266.918V38.1123H271.117V39.6357H260.746ZM261.645 44.9873C261.645 42.6045 263.48 40.9248 266 40.9248C268.51 40.9248 270.346 42.6045 270.355 44.9873C270.346 47.3896 268.51 49.0596 266 49.0693C263.48 49.0596 261.645 47.3896 261.645 44.9873ZM263.422 44.9873C263.412 46.5107 264.506 47.5264 266 47.5068C267.484 47.5264 268.568 46.5107 268.578 44.9873C268.568 43.4932 267.484 42.458 266 42.4482C264.506 42.458 263.412 43.4932 263.422 44.9873ZM287.055 36.8623V38.3467H290.863V35.3975H292.719V48.1514H290.863V43.6201H287.055V45.1436H278.93V36.8623H287.055ZM280.766 43.6787H285.238V38.3662H280.766V43.6787ZM281.293 52.5068V46.9795H283.168V51.0029H293.109V52.5068H281.293ZM287.055 42.0967H290.863V39.8701H287.055V42.0967ZM305.043 36.6865C307.426 36.6963 309.154 38.708 309.438 41.9404H313.051V35.3779H314.887V52.917H313.051V43.4443H309.457C309.252 46.8623 307.484 48.9814 305.043 48.9717C302.436 48.9814 300.59 46.5986 300.609 42.8193C300.59 39.0791 302.436 36.6963 305.043 36.6865ZM302.367 42.8193C302.377 45.6025 303.461 47.3115 305.043 47.3115C306.625 47.3115 307.709 45.6025 307.719 42.8193C307.709 40.0752 306.625 38.3564 305.043 38.3467C303.461 38.3564 302.377 40.0752 302.367 42.8193ZM332.895 35.3584V52.8584H331.098V43.835H329.184V52.0381H327.445V35.7295H329.184V42.3115H331.098V35.3584H332.895ZM317.523 47.7412C319.545 45.124 320.219 42.2041 320.346 38.9912H317.973V37.4873H321.938C321.938 41.335 321.43 45.2803 318.988 48.6201L317.523 47.7412ZM321.645 48.9326C323.9 45.9639 324.369 42.3604 324.457 38.9912H322.504V37.4873H326.078C326.078 41.3545 325.775 46.0713 323.148 49.7725L321.645 48.9326ZM348.5 35.3779V42.3506H351.215V43.8936H348.5V52.8584H346.645V35.3779H348.5ZM334.887 48.1904C339.271 46.0029 341.654 42.8389 342.035 38.7568H335.766V37.2139H343.93C343.91 42.2725 341.684 46.7939 335.922 49.6357L334.887 48.1904ZM360.961 35.6514V37.1748H369.066V35.6514H370.922V41.4521H359.125V35.6514H360.961ZM357.035 44.2256V42.7217H372.992V44.2256H365.922V45.7295H370.98V49.8115H360.785V51.2764H371.469V52.7021H358.969V48.4834H369.145V47.1162H358.949V45.7295H364.066V44.2256H357.035ZM360.961 40.0459H369.066V38.542H360.961V40.0459ZM388.91 35.3779V48.3662H387.055V43.542H384.32V41.9795H387.055V40.1436H384.32V38.6201H387.055V35.3779H388.91ZM374.34 44.3232C374.994 44.3232 375.717 44.3135 376.469 44.3135V38.249H374.828V36.7451H384.125V38.249H382.445V44.1084C383.188 44.0498 383.9 43.9912 384.594 43.9131L384.672 45.2803C381.322 45.8076 377.377 45.876 374.574 45.8857L374.34 44.3232ZM377.504 52.5068V47.3115H379.379V51.0029H389.359V52.5068H377.504ZM378.266 44.2842C379.057 44.2646 379.857 44.2354 380.668 44.2061V38.249H378.266V44.2842ZM400.258 38.2686V39.7725H391.566V38.2686H395.004V35.8857H396.84V38.2686H400.258ZM392.133 44.8506C392.123 42.4971 393.725 40.8271 395.922 40.8271C398.139 40.8271 399.721 42.4971 399.73 44.8506C399.721 47.2432 398.139 48.9229 395.922 48.9131C393.725 48.9229 392.123 47.2432 392.133 44.8506ZM393.773 44.8506C393.764 46.335 394.662 47.3311 395.922 47.3311C397.182 47.3311 398.09 46.335 398.09 44.8506C398.09 43.3955 397.182 42.3799 395.922 42.3701C394.662 42.3799 393.764 43.3955 393.773 44.8506ZM401.059 52.0576V35.7686H402.816V42.6631H404.828V35.3779H406.586V52.8779H404.828V44.1865H402.816V52.0576H401.059ZM424.906 49.1475V50.6904H408.891V49.1475H412.719V44.5771C411.283 43.7861 410.404 42.5361 410.414 40.9639C410.404 38.21 413.109 36.4033 416.859 36.3936C420.619 36.4033 423.324 38.21 423.324 40.9639C423.324 42.5068 422.484 43.7471 421.078 44.5381V49.1475H424.906ZM412.211 40.9639C412.211 42.8389 414.115 44.0596 416.859 44.0693C419.584 44.0596 421.518 42.8389 421.527 40.9639C421.518 39.0791 419.584 37.8779 416.859 37.8779C414.115 37.8779 412.211 39.0791 412.211 40.9639ZM414.555 49.1475H419.203V45.2607C418.49 45.4268 417.699 45.5146 416.859 45.5146C416.039 45.5146 415.258 45.4268 414.555 45.2607V49.1475ZM429.398 37.0771L429.223 47.1357H427.289L427.113 37.0771H429.398ZM426.879 49.9678C426.869 49.2061 427.504 48.5811 428.266 48.5811C429.018 48.5811 429.643 49.2061 429.652 49.9678C429.643 50.7295 429.018 51.3447 428.266 51.3545C427.504 51.3447 426.869 50.7295 426.879 49.9678Z" fill="#5E5A5A"/>
<path d="M35.7109 150.723V160.4C37.3418 160.371 38.8457 160.254 40.5156 159.902L40.8477 161.992C38.6602 162.471 36.7461 162.549 34.4609 162.539H33.2109V150.723H35.7109ZM38.2109 156.66V154.648H41.7656V149.355H44.1289V166.016H41.7656V156.66H38.2109ZM45.5938 166.797V149.023H47.9375V166.797H45.5938ZM53.5625 163.555L51.8828 169.121H49.8125L50.7891 163.555H53.5625ZM73.6211 149.043V154.492H76.0234V156.523H73.6211V162.305H71.1211V149.043H73.6211ZM59.5195 152.871V150.898H63.5625V149.004H66.043V150.898H70.0664V152.871H59.5195ZM60.3789 156.934C60.3789 154.873 62.2051 153.496 64.793 153.496C67.3711 153.496 69.168 154.873 69.168 156.934C69.168 158.984 67.3711 160.332 64.793 160.332C62.2051 160.332 60.3789 158.984 60.3789 156.934ZM62.0977 166.484V161.289H64.5781V164.492H74.2656V166.484H62.0977ZM62.8203 156.934C62.8105 157.91 63.6016 158.438 64.793 158.438C65.9941 158.438 66.8047 157.91 66.8047 156.934C66.8047 155.947 65.9941 155.4 64.793 155.391C63.6016 155.4 62.8105 155.947 62.8203 156.934ZM91.7852 149.043V162.148H89.3047V155.742H86.0234V159.336H77.5664V150.195H80.0664V152.93H83.5625V150.195H86.0234V153.75H89.3047V149.043H91.7852ZM79.9492 166.484V160.84H82.4688V164.492H92.1562V166.484H79.9492ZM80.0664 157.383H83.5625V154.824H80.0664V157.383ZM112.723 149.023V155.625H115.34V157.656H112.723V166.836H110.223V149.023H112.723ZM99.4023 162.52V150.664H107.742V152.676H101.883V160.469C104.461 160.449 106.59 160.312 108.953 159.902L109.227 161.992C106.463 162.461 104.041 162.529 100.906 162.52H99.4023ZM124.09 149.355C128.045 149.346 130.545 150.664 130.555 152.832C130.545 154.99 128.045 156.279 124.09 156.27C120.154 156.279 117.605 154.99 117.605 152.832C117.605 150.664 120.154 149.346 124.09 149.355ZM115.984 159.297V157.305H132.195V159.297H115.984ZM117.859 166.602V160.547H130.262V166.602H117.859ZM120.203 152.832C120.184 153.828 121.6 154.336 124.09 154.336C126.541 154.336 127.977 153.828 127.977 152.832C127.977 151.807 126.541 151.289 124.09 151.289C121.6 151.289 120.184 151.807 120.203 152.832ZM120.32 164.609H127.82V162.52H120.32V164.609ZM137.43 150.332C139.5 150.332 141.092 151.719 141.473 153.848H142.645V149.297H144.949V161.719H142.645V155.879H141.443C141.023 157.92 139.451 159.277 137.43 159.277C135.057 159.277 133.338 157.422 133.348 154.805C133.338 152.139 135.057 150.332 137.43 150.332ZM135.574 154.805C135.564 156.279 136.336 157.129 137.43 157.129C138.514 157.129 139.305 156.279 139.324 154.805C139.305 153.33 138.514 152.441 137.43 152.441C136.336 152.441 135.564 153.33 135.574 154.805ZM136.492 166.484V160.547H138.992V164.492H148.992V166.484H136.492ZM146.18 162.266V149.023H148.543V162.266H146.18ZM171.414 158.965V160.957H164.461V166.777H162V160.957H155.145V158.965H171.414ZM157.059 157.051V149.883H169.461V157.051H157.059ZM159.52 155.098H166.98V151.855H159.52V155.098ZM187.859 149.023V166.797H185.516V149.023H187.859ZM172.234 161.348C175.828 159.219 177.41 156.631 177.752 153.145H173.211V151.133H180.223C180.223 152.832 180.037 154.414 179.607 155.879H181.746V149.414H184.07V166.016H181.746V157.852H178.836C177.82 159.883 176.17 161.641 173.641 163.105L172.234 161.348ZM205.984 156.992V158.848H189.715V156.992H205.984ZM191.57 161.445V159.727H204.031V163.926H194.07V164.941H204.559V166.641H191.59V162.344H201.57V161.445H191.57ZM191.707 151.035V149.336H204.012V153.516H194.227V154.473H204.324V156.152H191.746V151.934H201.512V151.035H191.707ZM217.41 165.195C214.461 165.195 212.303 163.457 212.254 161.016H215.105C215.174 162.119 216.18 162.881 217.41 162.871C218.875 162.881 219.92 161.846 219.91 160.371C219.92 158.867 218.855 157.822 217.371 157.812C216.307 157.812 215.564 158.213 215.145 159.004H212.488L213.25 150.859H221.961V153.262H215.672L215.281 156.836H215.398C215.916 156.143 216.99 155.635 218.23 155.645C220.828 155.635 222.762 157.578 222.762 160.293C222.762 163.154 220.594 165.195 217.41 165.195ZM224.832 165V150.859H227.762V157.129H227.957L233.094 150.859H236.629L231.355 157.188L236.688 165H233.172L229.246 159.16L227.762 160.957V165H224.832ZM246.688 155.41C246.287 154.082 245.223 153.271 243.68 153.262C241.492 153.271 240.008 154.941 240.008 157.91C240.008 160.898 241.443 162.588 243.699 162.598C245.721 162.588 246.922 161.445 246.961 159.668H243.895V157.461H249.793V159.219C249.793 162.93 247.244 165.195 243.68 165.195C239.715 165.195 237.02 162.422 237.02 157.949C237.02 153.359 239.891 150.664 243.621 150.664C246.814 150.664 249.266 152.627 249.656 155.41H246.688ZM259.383 149.922C263.133 149.932 266.072 151.963 266.082 155.039C266.072 158.145 263.133 160.166 259.383 160.156C255.623 160.166 252.703 158.145 252.703 155.039C252.703 151.963 255.623 149.932 259.383 149.922ZM251.277 164.629V162.617H267.547V164.629H251.277ZM255.125 155.039C255.115 156.973 256.912 158.125 259.383 158.125C261.834 158.125 263.611 156.973 263.621 155.039C263.611 153.135 261.834 151.934 259.383 151.953C256.912 151.934 255.115 153.135 255.125 155.039ZM284.832 162.773V164.824H268.562V162.773H275.418V160.098H270.438V154.121H280.496V152.168H270.418V150.176H282.957V156.074H272.938V158.066H283.367V160.098H277.898V162.773H284.832ZM304.559 149.004V152.91H306.961V154.98H304.559V158.75H302.059V149.004H304.559ZM291.18 157.91V149.863H293.68V155.85C295.838 155.801 298.152 155.605 300.613 155.098L300.906 157.129C297.977 157.734 295.213 157.91 292.703 157.91H291.18ZM292.039 164.746C295.398 164.375 297.146 162.91 297.43 161.484H292.801V159.512H304.773V161.484H300.145C300.428 162.871 302.215 164.375 305.555 164.785L304.617 166.68C301.795 166.309 299.812 165.137 298.807 163.613C297.801 165.146 295.818 166.26 292.996 166.641L292.039 164.746ZM318.152 150.762V152.695H314.812C314.881 154.053 316.141 155.303 318.68 155.742L317.664 157.676C315.672 157.285 314.305 156.377 313.543 155.176C312.781 156.494 311.365 157.471 309.285 157.891L308.25 156.016C310.857 155.527 312.107 154.16 312.176 152.695H308.758V150.762H312.273V149.062H314.734V150.762H318.152ZM307.664 158.633C310.965 158.633 315.369 158.594 319.207 158.066L319.344 159.902C317.791 160.176 316.199 160.361 314.637 160.469V166.27H312.117V160.605C310.643 160.654 309.236 160.664 307.977 160.664L307.664 158.633ZM316.766 163.301V161.387H320.379V149.043H322.918V166.797H320.379V163.301H316.766ZM331.746 153.047C331.756 156.387 333.104 159.639 336.062 160.918L334.539 162.91C332.566 161.953 331.238 160.176 330.496 157.979C329.734 160.312 328.367 162.227 326.336 163.223L324.773 161.191C327.82 159.814 329.207 156.387 329.227 153.047V150.391H331.746V153.047ZM334.07 156.621V154.609H337.566V149.023H340.027V166.836H337.566V156.621H334.07ZM41.1016 175.738V177.711H32.5078V175.738H35.5938V173.512H38.0547V175.738H41.1016ZM32.918 182.73C32.918 180.26 34.5781 178.521 36.8438 178.512C39.1191 178.521 40.7402 180.26 40.75 182.73C40.7402 185.211 39.1191 186.969 36.8438 186.969C34.5781 186.969 32.918 185.211 32.918 182.73ZM35.1055 182.73C35.1055 184.088 35.8086 184.859 36.8438 184.859C37.8398 184.859 38.5527 184.088 38.5625 182.73C38.5527 181.393 37.8398 180.582 36.8438 180.582C35.8086 180.582 35.1055 181.393 35.1055 182.73ZM41.7656 190.035V173.375H44.0898V180.25H45.5352V173.023H47.8984V190.797H45.5352V182.242H44.0898V190.035H41.7656ZM66.082 186.695V188.727H49.8125V186.695H56.668V183.414H51.5312V174.156H54.0312V176.91H61.7852V174.156H64.2656V183.414H59.1484V186.695H66.082ZM54.0312 181.422H61.7852V178.902H54.0312V181.422ZM74.0117 177.047C74.002 180.309 75.4863 183.58 78.5039 184.859L77.0391 186.852C75.0078 185.934 73.6016 184.156 72.791 181.959C71.9902 184.361 70.5352 186.295 68.3672 187.281L66.8633 185.211C69.9688 183.902 71.4824 180.494 71.4922 177.047V174.391H74.0117V177.047ZM79.4609 190.836V173.023H81.9805V190.836H79.4609ZM99.0312 174.566V176.246C99.0215 178.473 99.0215 180.973 98.3086 184.742L95.8086 184.488C96.4922 181.129 96.5215 178.629 96.5312 176.539H86.0625V174.566H99.0312ZM84.3828 188.629V186.598H90.1836V180.484H92.6641V186.598H100.594V188.629H84.3828ZM105.418 187.555L103.738 193.121H101.668L102.645 187.555H105.418ZM125.594 174.664V176.793C125.584 179.234 125.584 181.646 124.949 185.328L122.43 185.113C123.104 181.695 123.104 179.156 123.113 176.793V176.656H113.055V174.664H125.594ZM111.375 188.473V186.422H127.586V188.473H111.375ZM135.906 174.742V181.598H131.551V184.781C133.24 184.762 134.842 184.693 136.668 184.41L136.844 186.402C134.52 186.793 132.596 186.852 130.398 186.852H129.168V179.605H133.504V176.754H129.148V174.742H135.906ZM137.664 189.938V173.316H139.949V179.742H141.668V173.023H144.031V190.797H141.668V181.754H139.949V189.938H137.664ZM160.438 180.973V182.945H155.281V186.734H162.215V188.766H145.945V186.734H152.801V182.945H147.859V174.273H160.301V176.266H150.359V180.973H160.438ZM172.371 173.297V174.527H179.5V173.297H181.98V179.254H169.91V173.297H172.371ZM167.84 182.184V180.172H184.051V182.184H177.176V183.297H182.078V187.789H172.176V188.805H182.547V190.68H169.734V186.07H179.617V185.113H169.715V183.297H174.676V182.184H167.84ZM172.371 177.398H179.5V176.324H172.371V177.398ZM200.105 173.023V186.109H197.625V181.734H195.359V179.684H197.625V178.141H195.359V176.148H197.625V173.023H200.105ZM185.125 181.93L187.02 181.92V176.285H185.574V174.293H195.047V176.285H193.582V181.686C194.178 181.637 194.764 181.578 195.32 181.52L195.418 183.336C192.088 183.883 188.201 183.961 185.379 183.961L185.125 181.93ZM188.289 190.484V185.133H190.789V188.492H200.535V190.484H188.289ZM189.422 181.881C190.008 181.861 190.604 181.842 191.199 181.822V176.285H189.422V181.881ZM216.434 173.023V179.977H219.051V182.027H216.434V190.797H213.973V173.023H216.434ZM202.312 177.672V175.68H206.336V173.297H208.836V175.68H212.762V177.672H202.312ZM203.035 182.906C203.025 180.426 204.959 178.658 207.586 178.668C210.174 178.658 212.117 180.426 212.117 182.906C212.117 185.387 210.174 187.135 207.586 187.145C204.959 187.135 203.025 185.387 203.035 182.906ZM205.418 182.906C205.418 184.283 206.326 185.104 207.586 185.094C208.826 185.104 209.734 184.283 209.734 182.906C209.734 181.539 208.826 180.699 207.586 180.68C206.326 180.699 205.418 181.539 205.418 182.906ZM233.719 173.023V179.625H236.336V181.656H233.719V190.836H231.219V173.023H233.719ZM220.398 186.52V174.664H228.738V176.676H222.879V184.469C225.457 184.449 227.586 184.312 229.949 183.902L230.223 185.992C227.459 186.461 225.037 186.529 221.902 186.52H220.398ZM246.16 174.469V175.816H249.48V173.043H251.961V185.973H249.48V181.617H246.16V183.121H237.723V174.469H246.16ZM240.125 190.484V184.742H242.645V188.492H252.332V190.484H240.125ZM240.203 181.188H243.719V176.441H240.203V181.188ZM246.16 179.645H249.48V177.828H246.16V179.645ZM272.977 173.043V178.492H275.379V180.523H272.977V186.305H270.477V173.043H272.977ZM258.875 176.871V174.898H262.918V173.004H265.398V174.898H269.422V176.871H258.875ZM259.734 180.934C259.734 178.873 261.561 177.496 264.148 177.496C266.727 177.496 268.523 178.873 268.523 180.934C268.523 182.984 266.727 184.332 264.148 184.332C261.561 184.332 259.734 182.984 259.734 180.934ZM261.453 190.484V185.289H263.934V188.492H273.621V190.484H261.453ZM262.176 180.934C262.166 181.91 262.957 182.438 264.148 182.438C265.35 182.438 266.16 181.91 266.16 180.934C266.16 179.947 265.35 179.4 264.148 179.391C262.957 179.4 262.166 179.947 262.176 180.934ZM295.75 173.043V186.148H293.27V179.742H289.988V183.336H281.531V174.195H284.031V176.93H287.527V174.195H289.988V177.75H293.27V173.043H295.75ZM283.914 190.484V184.84H286.434V188.492H296.121V190.484H283.914ZM284.031 181.383H287.527V178.824H284.031V181.383ZM309.227 177.867C309.217 180.572 310.662 183.697 313.582 185.055L312.195 187.008C310.213 186.1 308.807 184.283 308.006 182.154C307.215 184.498 305.75 186.49 303.699 187.457L302.254 185.484C305.213 184.107 306.707 180.807 306.727 177.867V176.773H302.957V174.742H312.801V176.773H309.227V177.867ZM314.188 190.797V173.023H316.688V179.801H319.305V181.891H316.688V190.797H314.188ZM325.652 177.496C325.643 180.377 326.443 183.346 328.875 184.898L327.527 186.832C325.984 185.904 325.018 184.361 324.451 182.545C323.816 184.557 322.752 186.246 321.141 187.223L319.617 185.387C322.254 183.756 323.23 180.621 323.23 177.613V174.547H325.652V177.496ZM327 181.051V179.02H329.305V173.277H331.629V189.977H329.305V181.051H327ZM332.977 190.797V173.023H335.359V190.797H332.977ZM353.484 180.992V182.848H337.215V180.992H353.484ZM339.07 185.445V183.727H351.531V187.926H341.57V188.941H352.059V190.641H339.09V186.344H349.07V185.445H339.07ZM339.207 175.035V173.336H351.512V177.516H341.727V178.473H351.824V180.152H339.246V175.934H349.012V175.035H339.207ZM38.0742 202.434C38.0742 205.129 39.041 207.834 41.5703 209.191L40.2031 211.008C38.6016 210.188 37.5371 208.752 36.9121 207.023C36.2969 208.908 35.2324 210.5 33.6211 211.438L32.1953 209.562C34.7637 208.078 35.7109 205.178 35.7305 202.434V202.023H32.8594V200.031H35.7305V197.629H38.0547V200.031H40.8672V202.023H38.0742V202.434ZM39.832 205.793V203.762H41.9219V197.316H44.2656V213.977H41.9219V205.793H39.832ZM45.5352 214.797V197.023H47.8984V214.797H45.5352ZM64.3633 198.586V200.656C64.3535 203.244 64.3535 205.705 63.543 209.562L61.0625 209.328C61.4141 207.854 61.6191 206.545 61.7461 205.344L51.4336 205.852L51.1211 203.859L61.873 203.469C61.9121 202.492 61.9219 201.574 61.9219 200.656V200.578H51.668V198.586H64.3633ZM49.8125 212.668V210.637H66.0234V212.668H49.8125ZM75.6719 199.738V201.711H67.0781V199.738H70.1641V197.512H72.625V199.738H75.6719ZM67.4883 206.73C67.4883 204.26 69.1484 202.521 71.4141 202.512C73.6895 202.521 75.3105 204.26 75.3203 206.73C75.3105 209.211 73.6895 210.969 71.4141 210.969C69.1484 210.969 67.4883 209.211 67.4883 206.73ZM69.6758 206.73C69.6758 208.088 70.3789 208.859 71.4141 208.859C72.4102 208.859 73.123 208.088 73.1328 206.73C73.123 205.393 72.4102 204.582 71.4141 204.582C70.3789 204.582 69.6758 205.393 69.6758 206.73ZM76.3359 214.035V197.375H78.6602V204.25H80.1055V197.023H82.4688V214.797H80.1055V206.242H78.6602V214.035H76.3359ZM87.7031 198.43V200.656H91.7852V198.43H94.2852V206.613H91.0234V209.309C92.4004 209.24 93.7773 209.133 95.0664 208.957L95.2422 210.773C91.5215 211.438 87.5176 211.447 84.5 211.457L84.168 209.426C85.4766 209.426 86.9707 209.426 88.543 209.396V206.613H85.2617V198.43H87.7031ZM87.7031 204.66H91.7852V202.551H87.7031V204.66ZM96.0039 214.797V197.023H98.5039V204.133H100.926V206.203H98.5039V214.797H96.0039ZM117.938 210.676V212.727H101.668V210.676H105.301V206.32C103.924 205.49 103.094 204.23 103.094 202.668C103.094 199.787 105.906 197.893 109.773 197.883C113.621 197.893 116.463 199.787 116.473 202.668C116.463 204.201 115.662 205.441 114.324 206.271V210.676H117.938ZM105.555 202.668C105.555 204.406 107.225 205.48 109.773 205.48C112.283 205.48 114.002 204.406 114.012 202.668C114.002 200.881 112.283 199.846 109.773 199.855C107.225 199.846 105.555 200.881 105.555 202.668ZM107.762 210.676H111.805V207.219C111.17 207.346 110.486 207.414 109.773 207.414C109.061 207.414 108.387 207.346 107.762 207.229V210.676ZM48.7773 253.676V255.668H42.0391V258.754H39.5195V255.668H32.5078V253.676H48.7773ZM34.1875 249.047C34.1875 246.791 36.7656 245.375 40.6328 245.355C44.4805 245.375 47.0488 246.791 47.0586 249.047C47.0488 251.312 44.4805 252.719 40.6328 252.719C36.7656 252.719 34.1875 251.312 34.1875 249.047ZM34.4414 262.484V257.172H36.9609V260.473H46.9805V262.484H34.4414ZM36.8828 249.047C36.873 250.131 38.3379 250.717 40.6328 250.727C42.9277 250.717 44.3828 250.131 44.3828 249.047C44.3828 247.914 42.9277 247.328 40.6328 247.328C38.3379 247.328 36.873 247.914 36.8828 249.047ZM66.0625 253.422V255.375H49.8125V253.422H56.7266V251.898H51.7852V245.805H64.1094V247.738H54.2656V249.945H64.207V251.898H59.168V253.422H66.0625ZM51.668 259.555C51.668 257.445 54.0117 256.273 57.8984 256.273C61.7559 256.273 64.0703 257.445 64.0898 259.555C64.0703 261.635 61.7559 262.816 57.8984 262.816C54.0117 262.816 51.668 261.635 51.668 259.555ZM54.207 259.555C54.1973 260.482 55.4375 260.922 57.8984 260.922C60.3105 260.922 61.5801 260.482 61.5898 259.555C61.5801 258.637 60.3105 258.168 57.8984 258.168C55.4375 258.168 54.1973 258.637 54.207 259.555ZM72.0586 245.98C73.4746 245.971 74.7148 246.498 75.5645 247.367H79.5977V245.023H82.0781V255.434H79.5977V253.305H75.5449C74.6953 254.164 73.4648 254.682 72.0586 254.672C69.3633 254.682 67.3125 252.846 67.332 250.336C67.3125 247.797 69.3633 245.971 72.0586 245.98ZM69.6953 250.336C69.6855 251.703 70.6719 252.572 72.0586 252.562C73.3965 252.572 74.373 251.703 74.3828 250.336C74.373 248.92 73.3965 248.1 72.0586 248.109C70.6719 248.1 69.6855 248.92 69.6953 250.336ZM69.8906 259.301C69.8906 257.094 72.2441 255.795 76.0039 255.805C79.7637 255.795 82.127 257.094 82.1367 259.301C82.127 261.508 79.7637 262.807 76.0039 262.797C72.2441 262.807 69.8906 261.508 69.8906 259.301ZM72.332 259.301C72.332 260.336 73.6504 260.863 76.0039 260.863C78.4062 260.863 79.6855 260.336 79.6953 259.301C79.6855 258.236 78.4062 257.709 76.0039 257.699C73.6504 257.709 72.332 258.236 72.332 259.301ZM76.6289 249.34C76.707 249.652 76.7461 249.994 76.7461 250.336C76.7461 250.678 76.707 251 76.6387 251.312H79.5977V249.34H76.6289ZM90.8672 247.816C90.8574 249.975 92.1172 252.045 94.9297 252.914L93.6016 254.848C91.7168 254.223 90.3984 253.012 89.6367 251.459C88.8652 253.246 87.4883 254.652 85.457 255.336L84.1094 253.383C87.0781 252.396 88.3477 250.033 88.3672 247.582V245.961H90.8672V247.816ZM86.5703 259.359C86.5605 257.201 88.9141 255.922 92.6641 255.922C96.3457 255.922 98.6504 257.201 98.6602 259.359C98.6504 261.537 96.3457 262.807 92.6641 262.797C88.9141 262.807 86.5605 261.537 86.5703 259.359ZM89.0703 259.359C89.0508 260.365 90.3301 260.844 92.6641 260.844C94.9688 260.844 96.1992 260.365 96.1992 259.359C96.1992 258.393 94.9688 257.875 92.6641 257.875C90.3301 257.875 89.0508 258.393 89.0703 259.359ZM95.9844 255.57V245.023H98.4844V249.184H100.887V251.254H98.4844V255.57H95.9844ZM109.773 245.277C113.865 245.277 116.229 246.352 116.238 248.305C116.229 250.287 113.865 251.352 109.773 251.352C105.672 251.352 103.289 250.287 103.289 248.305C103.289 246.352 105.672 245.277 109.773 245.277ZM101.668 254.164V252.191H117.879V254.164H101.668ZM103.543 257.016V255.199H115.906V259.73H106.004V260.805H116.375V262.68H103.562V257.992H113.445V257.016H103.543ZM105.906 248.305C105.896 249.174 107.166 249.516 109.773 249.516C112.4 249.516 113.66 249.174 113.66 248.305C113.66 247.514 112.4 247.094 109.773 247.094C107.166 247.094 105.896 247.514 105.906 248.305ZM128.523 245.785C130.789 245.766 132.596 247.064 133.084 248.969H136.062V245.023H138.543V254.574H136.062V250.961H133.094C132.635 252.914 130.809 254.242 128.523 254.242C125.789 254.242 123.777 252.465 123.797 249.984C123.777 247.553 125.789 245.766 128.523 245.785ZM126.16 249.984C126.15 251.312 127.127 252.152 128.523 252.152C129.871 252.152 130.838 251.312 130.848 249.984C130.838 248.656 129.871 247.846 128.523 247.855C127.127 247.846 126.15 248.656 126.16 249.984ZM126.688 262.602V255.355H129.148V257.074H136.062V255.355H138.543V262.602H126.688ZM129.148 260.59H136.062V258.988H129.148V260.59ZM157.117 258.773V260.824H140.848V258.773H147.703V256.098H142.723V250.121H152.781V248.168H142.703V246.176H155.242V252.074H145.223V254.066H155.652V256.098H150.184V258.773H157.117ZM172.625 253.246V255.238H160.047V246.508H172.488V248.52H162.508V253.246H172.625ZM158.133 260.629V258.578H174.402V260.629H158.133ZM183.992 247.738V249.711H175.398V247.738H178.484V245.512H180.945V247.738H183.992ZM175.809 254.73C175.809 252.26 177.469 250.521 179.734 250.512C182.01 250.521 183.631 252.26 183.641 254.73C183.631 257.211 182.01 258.969 179.734 258.969C177.469 258.969 175.809 257.211 175.809 254.73ZM177.996 254.73C177.996 256.088 178.699 256.859 179.734 256.859C180.73 256.859 181.443 256.088 181.453 254.73C181.443 253.393 180.73 252.582 179.734 252.582C178.699 252.582 177.996 253.393 177.996 254.73ZM184.656 262.035V245.375H186.98V252.25H188.426V245.023H190.789V262.797H188.426V254.242H186.98V262.035H184.656ZM208.914 254.828V256.82H202V262.797H199.539V256.82H192.703V254.828H208.914ZM193.504 251.84C197.098 251.4 199.09 249.662 199.354 247.914H194.168V245.961H207.469V247.914H202.283C202.537 249.662 204.5 251.4 208.152 251.84L207.254 253.793C204.129 253.373 201.893 252.045 200.818 250.219C199.734 252.045 197.518 253.373 194.422 253.793L193.504 251.84ZM215.691 249.496C215.682 252.377 216.482 255.346 218.914 256.898L217.566 258.832C216.023 257.904 215.057 256.361 214.49 254.545C213.855 256.557 212.791 258.246 211.18 259.223L209.656 257.387C212.293 255.756 213.27 252.621 213.27 249.613V246.547H215.691V249.496ZM217.039 253.051V251.02H219.344V245.277H221.668V261.977H219.344V253.051H217.039ZM223.016 262.797V245.023H225.398V262.797H223.016ZM243.543 258.676V260.727H227.273V258.676H230.906V254.32C229.529 253.49 228.699 252.23 228.699 250.668C228.699 247.787 231.512 245.893 235.379 245.883C239.227 245.893 242.068 247.787 242.078 250.668C242.068 252.201 241.268 253.441 239.93 254.271V258.676H243.543ZM231.16 250.668C231.16 252.406 232.83 253.48 235.379 253.48C237.889 253.48 239.607 252.406 239.617 250.668C239.607 248.881 237.889 247.846 235.379 247.855C232.83 247.846 231.16 248.881 231.16 250.668ZM233.367 258.676H237.41V255.219C236.775 255.346 236.092 255.414 235.379 255.414C234.666 255.414 233.992 255.346 233.367 255.229V258.676ZM246.863 261.176C245.945 261.176 245.203 260.443 245.223 259.535C245.203 258.637 245.945 257.904 246.863 257.914C247.732 257.904 248.484 258.637 248.484 259.535C248.484 260.443 247.732 261.176 246.863 261.176Z" fill="white"/>
<defs>
<filter id="filter0_d_486_653" x="87" y="0" width="392.271" height="124.595" filterUnits="userSpaceOnUse" color-interpolation-filters="sRGB">
<feFlood flood-opacity="0" result="BackgroundImageFix"/>
<feColorMatrix in="SourceAlpha" type="matrix" values="0 0 0 0 0 0 0 0 0 0 0 0 0 0 0 0 0 0 127 0" result="hardAlpha"/>
<feOffset dy="4"/>
<feGaussianBlur stdDeviation="2"/>
<feComposite in2="hardAlpha" operator="out"/>
<feColorMatrix type="matrix" values="0 0 0 0 0 0 0 0 0 0 0 0 0 0 0 0 0 0 0.05 0"/>
<feBlend mode="normal" in2="BackgroundImageFix" result="effect1_dropShadow_486_653"/>
<feBlend mode="normal" in="SourceGraphic" in2="effect1_dropShadow_486_653" result="shape"/>
</filter>
<filter id="filter1_d_486_653" x="0" y="116.596" width="392.271" height="215.404" filterUnits="userSpaceOnUse" color-interpolation-filters="sRGB">
<feFlood flood-opacity="0" result="BackgroundImageFix"/>
<feColorMatrix in="SourceAlpha" type="matrix" values="0 0 0 0 0 0 0 0 0 0 0 0 0 0 0 0 0 0 127 0" result="hardAlpha"/>
<feOffset dy="4"/>
<feGaussianBlur stdDeviation="2"/>
<feComposite in2="hardAlpha" operator="out"/>
<feColorMatrix type="matrix" values="0 0 0 0 0 0 0 0 0 0 0 0 0 0 0 0 0 0 0.05 0"/>
<feBlend mode="normal" in2="BackgroundImageFix" result="effect1_dropShadow_486_653"/>
<feBlend mode="normal" in="SourceGraphic" in2="effect1_dropShadow_486_653" result="shape"/>
</filter>
</defs>
</svg>
