<svg width="483" height="335" viewBox="0 0 483 335" fill="none" xmlns="http://www.w3.org/2000/svg">
<g filter="url(#filter0_d_245_513)">
<path d="M94.3203 16.4219C94.3203 7.35232 101.673 0 110.742 0H462.17C471.24 0 478.592 7.35232 478.592 16.4219V72.2562C478.592 81.3258 471.24 88.6781 462.17 88.6781H110.742C101.673 88.6781 94.3203 81.3258 94.3203 72.2562V16.4219Z" fill="white"/>
<path d="M451.086 71.4352H387.451C392.706 102.637 432.064 114.543 451.086 116.595C430.722 101.159 442.601 80.0566 451.086 71.4352Z" fill="white"/>
</g>
<g filter="url(#filter1_d_245_513)">
<path d="M388.271 133.017C388.271 123.948 380.919 116.595 371.85 116.595H20.4215C11.3519 116.595 3.9996 123.948 3.9996 133.017V277.999C3.9996 287.069 11.3519 294.421 20.4215 294.421H371.85C380.919 294.421 388.271 287.069 388.271 277.999V133.017Z" fill="#00BBF5"/>
<path d="M31.5063 278.839H95.141C89.886 310.04 50.5283 321.946 31.5063 323.999C51.8694 308.562 39.9909 287.46 31.5063 278.839Z" fill="#00BBF5"/>
</g>
<path d="M143.93 36.4707V37.9746H137.758V43.209C140.863 43.1992 142.709 43.1113 144.848 42.6816L145.023 44.1855C142.719 44.6348 140.727 44.7422 137.25 44.752H135.922V36.4707H143.93ZM138.012 52.6426V46.334H149.555V52.6426H138.012ZM139.848 51.1387H147.738V47.7988H139.848V51.1387ZM142.953 41.0801V39.5566H147.699V35.377H149.555V45.4941H147.699V41.0801H142.953ZM167.172 35.3965V44.5371H165.414V35.3965H167.172ZM152.992 43.7949V36.3926H154.75V38.5801H158.129V36.3926H159.848V39.2441H161.918V35.7285H163.656V44.4395H161.918V40.7676H159.848V43.7949H152.992ZM154.75 42.3301H158.129V39.9863H154.75V42.3301ZM155.434 46.7832V45.3184H167.172V49.6152H157.328V51.2559H167.836V52.7012H155.473V48.2285H165.336V46.7832H155.434ZM189.34 35.377V48.6582H187.582V35.377H189.34ZM175.16 45.416V36.7637H176.918V39.6348H180.297V36.7637H182.016V40.377H184.164V35.6895H185.922V48.1113H184.164V41.8809H182.016V45.416H175.16ZM176.918 43.9121H180.297V41.0605H176.918V43.9121ZM177.738 52.5059V46.8613H179.574V51.002H189.848V52.5059H177.738ZM206.195 35.377V52.877H204.34V35.377H206.195ZM191.957 48.0918C194.662 46.8809 196.459 43.9316 196.469 41.002V39.8496H192.484V38.3652H196.449V35.7285H198.285V38.3652H202.211V39.8496H198.285V41.002C198.295 43.7949 200.131 46.6465 202.855 47.7988L201.84 49.2246C199.818 48.3457 198.217 46.5195 197.406 44.3125C196.615 46.6562 195.023 48.5996 192.992 49.5176L191.957 48.0918ZM225.004 49.127V50.6895H208.988V49.127H225.004ZM210.355 38.5801V37.0566H223.539V38.5801H220.863V44.4199H223.48V45.9043H210.395V44.4199H213.012V38.5801H210.355ZM214.848 44.4199H219.047V38.5801H214.848V44.4199ZM233.051 37.252V43.4824H228.617V47.0762C230.521 47.0664 232.338 46.9883 234.496 46.6074L234.652 48.1309C232.221 48.5703 230.229 48.6191 228.031 48.6387H226.82V41.998H231.273V38.7559H226.801V37.252H233.051ZM233.871 43.0723V41.5684H235.941V35.7676H237.699V51.9785H235.941V43.0723H233.871ZM239.516 52.877V35.377H241.293V52.877H239.516ZM252.445 37.8574C252.445 40.709 255.482 43.4043 258.852 44.0098L257.992 45.5527C255.189 44.9473 252.621 43.1113 251.488 40.6504C250.336 43.1016 247.768 44.9277 244.965 45.5527L244.145 44.0098C247.465 43.3848 250.482 40.709 250.492 37.8574V36.5293H252.445V37.8574ZM243.559 50.5723V49.0293H259.574V50.5723H243.559ZM274.477 35.377V42.4668H277.289V44.0098H274.477V52.877H272.641V35.377H274.477ZM260.746 39.6348V38.1113H265.062V35.6113H266.918V38.1113H271.117V39.6348H260.746ZM261.645 44.9863C261.645 42.6035 263.48 40.9238 266 40.9238C268.51 40.9238 270.346 42.6035 270.355 44.9863C270.346 47.3887 268.51 49.0586 266 49.0684C263.48 49.0586 261.645 47.3887 261.645 44.9863ZM263.422 44.9863C263.412 46.5098 264.506 47.5254 266 47.5059C267.484 47.5254 268.568 46.5098 268.578 44.9863C268.568 43.4922 267.484 42.457 266 42.4473C264.506 42.457 263.412 43.4922 263.422 44.9863ZM287.055 36.8613V38.3457H290.863V35.3965H292.719V48.1504H290.863V43.6191H287.055V45.1426H278.93V36.8613H287.055ZM280.766 43.6777H285.238V38.3652H280.766V43.6777ZM281.293 52.5059V46.9785H283.168V51.002H293.109V52.5059H281.293ZM287.055 42.0957H290.863V39.8691H287.055V42.0957ZM305.043 36.6855C307.426 36.6953 309.154 38.707 309.438 41.9395H313.051V35.377H314.887V52.916H313.051V43.4434H309.457C309.252 46.8613 307.484 48.9805 305.043 48.9707C302.436 48.9805 300.59 46.5977 300.609 42.8184C300.59 39.0781 302.436 36.6953 305.043 36.6855ZM302.367 42.8184C302.377 45.6016 303.461 47.3105 305.043 47.3105C306.625 47.3105 307.709 45.6016 307.719 42.8184C307.709 40.0742 306.625 38.3555 305.043 38.3457C303.461 38.3555 302.377 40.0742 302.367 42.8184ZM332.895 35.3574V52.8574H331.098V43.834H329.184V52.0371H327.445V35.7285H329.184V42.3105H331.098V35.3574H332.895ZM317.523 47.7402C319.545 45.123 320.219 42.2031 320.346 38.9902H317.973V37.4863H321.938C321.938 41.334 321.43 45.2793 318.988 48.6191L317.523 47.7402ZM321.645 48.9316C323.9 45.9629 324.369 42.3594 324.457 38.9902H322.504V37.4863H326.078C326.078 41.3535 325.775 46.0703 323.148 49.7715L321.645 48.9316ZM348.5 35.377V42.3496H351.215V43.8926H348.5V52.8574H346.645V35.377H348.5ZM334.887 48.1895C339.271 46.002 341.654 42.8379 342.035 38.7559H335.766V37.2129H343.93C343.91 42.2715 341.684 46.793 335.922 49.6348L334.887 48.1895ZM360.961 35.6504V37.1738H369.066V35.6504H370.922V41.4512H359.125V35.6504H360.961ZM357.035 44.2246V42.7207H372.992V44.2246H365.922V45.7285H370.98V49.8105H360.785V51.2754H371.469V52.7012H358.969V48.4824H369.145V47.1152H358.949V45.7285H364.066V44.2246H357.035ZM360.961 40.0449H369.066V38.541H360.961V40.0449ZM388.91 35.377V48.3652H387.055V43.541H384.32V41.9785H387.055V40.1426H384.32V38.6191H387.055V35.377H388.91ZM374.34 44.3223C374.994 44.3223 375.717 44.3125 376.469 44.3125V38.248H374.828V36.7441H384.125V38.248H382.445V44.1074C383.188 44.0488 383.9 43.9902 384.594 43.9121L384.672 45.2793C381.322 45.8066 377.377 45.875 374.574 45.8848L374.34 44.3223ZM377.504 52.5059V47.3105H379.379V51.002H389.359V52.5059H377.504ZM378.266 44.2832C379.057 44.2637 379.857 44.2344 380.668 44.2051V38.248H378.266V44.2832ZM400.258 38.2676V39.7715H391.566V38.2676H395.004V35.8848H396.84V38.2676H400.258ZM392.133 44.8496C392.123 42.4961 393.725 40.8262 395.922 40.8262C398.139 40.8262 399.721 42.4961 399.73 44.8496C399.721 47.2422 398.139 48.9219 395.922 48.9121C393.725 48.9219 392.123 47.2422 392.133 44.8496ZM393.773 44.8496C393.764 46.334 394.662 47.3301 395.922 47.3301C397.182 47.3301 398.09 46.334 398.09 44.8496C398.09 43.3945 397.182 42.3789 395.922 42.3691C394.662 42.3789 393.764 43.3945 393.773 44.8496ZM401.059 52.0566V35.7676H402.816V42.6621H404.828V35.377H406.586V52.877H404.828V44.1855H402.816V52.0566H401.059ZM424.906 49.1465V50.6895H408.891V49.1465H412.719V44.5762C411.283 43.7852 410.404 42.5352 410.414 40.9629C410.404 38.209 413.109 36.4023 416.859 36.3926C420.619 36.4023 423.324 38.209 423.324 40.9629C423.324 42.5059 422.484 43.7461 421.078 44.5371V49.1465H424.906ZM412.211 40.9629C412.211 42.8379 414.115 44.0586 416.859 44.0684C419.584 44.0586 421.518 42.8379 421.527 40.9629C421.518 39.0781 419.584 37.877 416.859 37.877C414.115 37.877 412.211 39.0781 412.211 40.9629ZM414.555 49.1465H419.203V45.2598C418.49 45.4258 417.699 45.5137 416.859 45.5137C416.039 45.5137 415.258 45.4258 414.555 45.2598V49.1465ZM429.398 37.0762L429.223 47.1348H427.289L427.113 37.0762H429.398ZM426.879 49.9668C426.869 49.2051 427.504 48.5801 428.266 48.5801C429.018 48.5801 429.643 49.2051 429.652 49.9668C429.643 50.7285 429.018 51.3438 428.266 51.3535C427.504 51.3438 426.869 50.7285 426.879 49.9668Z" fill="#5E5A5A"/>
<path d="M35.7109 150.722V160.399C37.3418 160.37 38.8457 160.253 40.5156 159.901L40.8477 161.991C38.6602 162.47 36.7461 162.548 34.4609 162.538H33.2109V150.722H35.7109ZM38.2109 156.659V154.647H41.7656V149.354H44.1289V166.015H41.7656V156.659H38.2109ZM45.5938 166.796V149.022H47.9375V166.796H45.5938ZM53.5625 163.554L51.8828 169.12H49.8125L50.7891 163.554H53.5625ZM73.6211 149.042V154.491H76.0234V156.522H73.6211V162.304H71.1211V149.042H73.6211ZM59.5195 152.87V150.897H63.5625V149.003H66.043V150.897H70.0664V152.87H59.5195ZM60.3789 156.933C60.3789 154.872 62.2051 153.495 64.793 153.495C67.3711 153.495 69.168 154.872 69.168 156.933C69.168 158.983 67.3711 160.331 64.793 160.331C62.2051 160.331 60.3789 158.983 60.3789 156.933ZM62.0977 166.483V161.288H64.5781V164.491H74.2656V166.483H62.0977ZM62.8203 156.933C62.8105 157.909 63.6016 158.437 64.793 158.437C65.9941 158.437 66.8047 157.909 66.8047 156.933C66.8047 155.946 65.9941 155.399 64.793 155.39C63.6016 155.399 62.8105 155.946 62.8203 156.933ZM91.7852 149.042V162.147H89.3047V155.741H86.0234V159.335H77.5664V150.194H80.0664V152.929H83.5625V150.194H86.0234V153.749H89.3047V149.042H91.7852ZM79.9492 166.483V160.839H82.4688V164.491H92.1562V166.483H79.9492ZM80.0664 157.382H83.5625V154.823H80.0664V157.382ZM112.723 149.022V155.624H115.34V157.655H112.723V166.835H110.223V149.022H112.723ZM99.4023 162.519V150.663H107.742V152.675H101.883V160.468C104.461 160.448 106.59 160.312 108.953 159.901L109.227 161.991C106.463 162.46 104.041 162.528 100.906 162.519H99.4023ZM124.09 149.354C128.045 149.345 130.545 150.663 130.555 152.831C130.545 154.989 128.045 156.278 124.09 156.269C120.154 156.278 117.605 154.989 117.605 152.831C117.605 150.663 120.154 149.345 124.09 149.354ZM115.984 159.296V157.304H132.195V159.296H115.984ZM117.859 166.601V160.546H130.262V166.601H117.859ZM120.203 152.831C120.184 153.827 121.6 154.335 124.09 154.335C126.541 154.335 127.977 153.827 127.977 152.831C127.977 151.806 126.541 151.288 124.09 151.288C121.6 151.288 120.184 151.806 120.203 152.831ZM120.32 164.608H127.82V162.519H120.32V164.608ZM137.43 150.331C139.5 150.331 141.092 151.718 141.473 153.847H142.645V149.296H144.949V161.718H142.645V155.878H141.443C141.023 157.919 139.451 159.276 137.43 159.276C135.057 159.276 133.338 157.421 133.348 154.804C133.338 152.138 135.057 150.331 137.43 150.331ZM135.574 154.804C135.564 156.278 136.336 157.128 137.43 157.128C138.514 157.128 139.305 156.278 139.324 154.804C139.305 153.329 138.514 152.44 137.43 152.44C136.336 152.44 135.564 153.329 135.574 154.804ZM136.492 166.483V160.546H138.992V164.491H148.992V166.483H136.492ZM146.18 162.265V149.022H148.543V162.265H146.18ZM171.414 158.964V160.956H164.461V166.776H162V160.956H155.145V158.964H171.414ZM157.059 157.05V149.882H169.461V157.05H157.059ZM159.52 155.097H166.98V151.854H159.52V155.097ZM187.859 149.022V166.796H185.516V149.022H187.859ZM172.234 161.347C175.828 159.218 177.41 156.63 177.752 153.144H173.211V151.132H180.223C180.223 152.831 180.037 154.413 179.607 155.878H181.746V149.413H184.07V166.015H181.746V157.851H178.836C177.82 159.882 176.17 161.64 173.641 163.104L172.234 161.347ZM205.984 156.991V158.847H189.715V156.991H205.984ZM191.57 161.444V159.726H204.031V163.925H194.07V164.94H204.559V166.64H191.59V162.343H201.57V161.444H191.57ZM191.707 151.034V149.335H204.012V153.515H194.227V154.472H204.324V156.151H191.746V151.933H201.512V151.034H191.707ZM217.41 165.194C214.461 165.194 212.303 163.456 212.254 161.015H215.105C215.174 162.118 216.18 162.88 217.41 162.87C218.875 162.88 219.92 161.845 219.91 160.37C219.92 158.866 218.855 157.821 217.371 157.812C216.307 157.812 215.564 158.212 215.145 159.003H212.488L213.25 150.858H221.961V153.261H215.672L215.281 156.835H215.398C215.916 156.142 216.99 155.634 218.23 155.644C220.828 155.634 222.762 157.577 222.762 160.292C222.762 163.153 220.594 165.194 217.41 165.194ZM224.832 164.999V150.858H227.762V157.128H227.957L233.094 150.858H236.629L231.355 157.187L236.688 164.999H233.172L229.246 159.159L227.762 160.956V164.999H224.832ZM246.688 155.409C246.287 154.081 245.223 153.271 243.68 153.261C241.492 153.271 240.008 154.94 240.008 157.909C240.008 160.897 241.443 162.587 243.699 162.597C245.721 162.587 246.922 161.444 246.961 159.667H243.895V157.46H249.793V159.218C249.793 162.929 247.244 165.194 243.68 165.194C239.715 165.194 237.02 162.421 237.02 157.948C237.02 153.358 239.891 150.663 243.621 150.663C246.814 150.663 249.266 152.626 249.656 155.409H246.688ZM259.383 149.921C263.133 149.931 266.072 151.962 266.082 155.038C266.072 158.144 263.133 160.165 259.383 160.155C255.623 160.165 252.703 158.144 252.703 155.038C252.703 151.962 255.623 149.931 259.383 149.921ZM251.277 164.628V162.616H267.547V164.628H251.277ZM255.125 155.038C255.115 156.972 256.912 158.124 259.383 158.124C261.834 158.124 263.611 156.972 263.621 155.038C263.611 153.134 261.834 151.933 259.383 151.952C256.912 151.933 255.115 153.134 255.125 155.038ZM284.832 162.772V164.823H268.562V162.772H275.418V160.097H270.438V154.12H280.496V152.167H270.418V150.175H282.957V156.073H272.938V158.065H283.367V160.097H277.898V162.772H284.832ZM304.559 149.003V152.909H306.961V154.979H304.559V158.749H302.059V149.003H304.559ZM291.18 157.909V149.862H293.68V155.849C295.838 155.8 298.152 155.604 300.613 155.097L300.906 157.128C297.977 157.733 295.213 157.909 292.703 157.909H291.18ZM292.039 164.745C295.398 164.374 297.146 162.909 297.43 161.483H292.801V159.511H304.773V161.483H300.145C300.428 162.87 302.215 164.374 305.555 164.784L304.617 166.679C301.795 166.308 299.812 165.136 298.807 163.612C297.801 165.146 295.818 166.259 292.996 166.64L292.039 164.745ZM318.152 150.761V152.694H314.812C314.881 154.052 316.141 155.302 318.68 155.741L317.664 157.675C315.672 157.284 314.305 156.376 313.543 155.175C312.781 156.493 311.365 157.47 309.285 157.89L308.25 156.015C310.857 155.526 312.107 154.159 312.176 152.694H308.758V150.761H312.273V149.062H314.734V150.761H318.152ZM307.664 158.632C310.965 158.632 315.369 158.593 319.207 158.065L319.344 159.901C317.791 160.175 316.199 160.36 314.637 160.468V166.269H312.117V160.604C310.643 160.653 309.236 160.663 307.977 160.663L307.664 158.632ZM316.766 163.3V161.386H320.379V149.042H322.918V166.796H320.379V163.3H316.766ZM331.746 153.046C331.756 156.386 333.104 159.638 336.062 160.917L334.539 162.909C332.566 161.952 331.238 160.175 330.496 157.978C329.734 160.312 328.367 162.226 326.336 163.222L324.773 161.19C327.82 159.813 329.207 156.386 329.227 153.046V150.39H331.746V153.046ZM334.07 156.62V154.608H337.566V149.022H340.027V166.835H337.566V156.62H334.07ZM41.1016 175.737V177.71H32.5078V175.737H35.5938V173.511H38.0547V175.737H41.1016ZM32.918 182.729C32.918 180.259 34.5781 178.521 36.8438 178.511C39.1191 178.521 40.7402 180.259 40.75 182.729C40.7402 185.21 39.1191 186.968 36.8438 186.968C34.5781 186.968 32.918 185.21 32.918 182.729ZM35.1055 182.729C35.1055 184.087 35.8086 184.858 36.8438 184.858C37.8398 184.858 38.5527 184.087 38.5625 182.729C38.5527 181.392 37.8398 180.581 36.8438 180.581C35.8086 180.581 35.1055 181.392 35.1055 182.729ZM41.7656 190.034V173.374H44.0898V180.249H45.5352V173.022H47.8984V190.796H45.5352V182.241H44.0898V190.034H41.7656ZM66.082 186.694V188.726H49.8125V186.694H56.668V183.413H51.5312V174.155H54.0312V176.909H61.7852V174.155H64.2656V183.413H59.1484V186.694H66.082ZM54.0312 181.421H61.7852V178.901H54.0312V181.421ZM74.0117 177.046C74.002 180.308 75.4863 183.579 78.5039 184.858L77.0391 186.851C75.0078 185.933 73.6016 184.155 72.791 181.958C71.9902 184.36 70.5352 186.294 68.3672 187.28L66.8633 185.21C69.9688 183.901 71.4824 180.493 71.4922 177.046V174.39H74.0117V177.046ZM79.4609 190.835V173.022H81.9805V190.835H79.4609ZM99.0312 174.565V176.245C99.0215 178.472 99.0215 180.972 98.3086 184.741L95.8086 184.487C96.4922 181.128 96.5215 178.628 96.5312 176.538H86.0625V174.565H99.0312ZM84.3828 188.628V186.597H90.1836V180.483H92.6641V186.597H100.594V188.628H84.3828ZM105.418 187.554L103.738 193.12H101.668L102.645 187.554H105.418ZM125.594 174.663V176.792C125.584 179.233 125.584 181.646 124.949 185.327L122.43 185.112C123.104 181.694 123.104 179.155 123.113 176.792V176.655H113.055V174.663H125.594ZM111.375 188.472V186.421H127.586V188.472H111.375ZM135.906 174.741V181.597H131.551V184.78C133.24 184.761 134.842 184.692 136.668 184.409L136.844 186.401C134.52 186.792 132.596 186.851 130.398 186.851H129.168V179.604H133.504V176.753H129.148V174.741H135.906ZM137.664 189.937V173.315H139.949V179.741H141.668V173.022H144.031V190.796H141.668V181.753H139.949V189.937H137.664ZM160.438 180.972V182.944H155.281V186.733H162.215V188.765H145.945V186.733H152.801V182.944H147.859V174.272H160.301V176.265H150.359V180.972H160.438ZM172.371 173.296V174.526H179.5V173.296H181.98V179.253H169.91V173.296H172.371ZM167.84 182.183V180.171H184.051V182.183H177.176V183.296H182.078V187.788H172.176V188.804H182.547V190.679H169.734V186.069H179.617V185.112H169.715V183.296H174.676V182.183H167.84ZM172.371 177.397H179.5V176.323H172.371V177.397ZM200.105 173.022V186.108H197.625V181.733H195.359V179.683H197.625V178.14H195.359V176.147H197.625V173.022H200.105ZM185.125 181.929L187.02 181.919V176.284H185.574V174.292H195.047V176.284H193.582V181.685C194.178 181.636 194.764 181.577 195.32 181.519L195.418 183.335C192.088 183.882 188.201 183.96 185.379 183.96L185.125 181.929ZM188.289 190.483V185.132H190.789V188.491H200.535V190.483H188.289ZM189.422 181.88C190.008 181.86 190.604 181.841 191.199 181.821V176.284H189.422V181.88ZM216.434 173.022V179.976H219.051V182.026H216.434V190.796H213.973V173.022H216.434ZM202.312 177.671V175.679H206.336V173.296H208.836V175.679H212.762V177.671H202.312ZM203.035 182.905C203.025 180.425 204.959 178.657 207.586 178.667C210.174 178.657 212.117 180.425 212.117 182.905C212.117 185.386 210.174 187.134 207.586 187.144C204.959 187.134 203.025 185.386 203.035 182.905ZM205.418 182.905C205.418 184.282 206.326 185.103 207.586 185.093C208.826 185.103 209.734 184.282 209.734 182.905C209.734 181.538 208.826 180.698 207.586 180.679C206.326 180.698 205.418 181.538 205.418 182.905ZM233.719 173.022V179.624H236.336V181.655H233.719V190.835H231.219V173.022H233.719ZM220.398 186.519V174.663H228.738V176.675H222.879V184.468C225.457 184.448 227.586 184.312 229.949 183.901L230.223 185.991C227.459 186.46 225.037 186.528 221.902 186.519H220.398ZM246.16 174.468V175.815H249.48V173.042H251.961V185.972H249.48V181.616H246.16V183.12H237.723V174.468H246.16ZM240.125 190.483V184.741H242.645V188.491H252.332V190.483H240.125ZM240.203 181.187H243.719V176.44H240.203V181.187ZM246.16 179.644H249.48V177.827H246.16V179.644ZM272.977 173.042V178.491H275.379V180.522H272.977V186.304H270.477V173.042H272.977ZM258.875 176.87V174.897H262.918V173.003H265.398V174.897H269.422V176.87H258.875ZM259.734 180.933C259.734 178.872 261.561 177.495 264.148 177.495C266.727 177.495 268.523 178.872 268.523 180.933C268.523 182.983 266.727 184.331 264.148 184.331C261.561 184.331 259.734 182.983 259.734 180.933ZM261.453 190.483V185.288H263.934V188.491H273.621V190.483H261.453ZM262.176 180.933C262.166 181.909 262.957 182.437 264.148 182.437C265.35 182.437 266.16 181.909 266.16 180.933C266.16 179.946 265.35 179.399 264.148 179.39C262.957 179.399 262.166 179.946 262.176 180.933ZM295.75 173.042V186.147H293.27V179.741H289.988V183.335H281.531V174.194H284.031V176.929H287.527V174.194H289.988V177.749H293.27V173.042H295.75ZM283.914 190.483V184.839H286.434V188.491H296.121V190.483H283.914ZM284.031 181.382H287.527V178.823H284.031V181.382ZM309.227 177.866C309.217 180.571 310.662 183.696 313.582 185.054L312.195 187.007C310.213 186.099 308.807 184.282 308.006 182.153C307.215 184.497 305.75 186.489 303.699 187.456L302.254 185.483C305.213 184.106 306.707 180.806 306.727 177.866V176.772H302.957V174.741H312.801V176.772H309.227V177.866ZM314.188 190.796V173.022H316.688V179.8H319.305V181.89H316.688V190.796H314.188ZM325.652 177.495C325.643 180.376 326.443 183.345 328.875 184.897L327.527 186.831C325.984 185.903 325.018 184.36 324.451 182.544C323.816 184.556 322.752 186.245 321.141 187.222L319.617 185.386C322.254 183.755 323.23 180.62 323.23 177.612V174.546H325.652V177.495ZM327 181.05V179.019H329.305V173.276H331.629V189.976H329.305V181.05H327ZM332.977 190.796V173.022H335.359V190.796H332.977ZM353.484 180.991V182.847H337.215V180.991H353.484ZM339.07 185.444V183.726H351.531V187.925H341.57V188.94H352.059V190.64H339.09V186.343H349.07V185.444H339.07ZM339.207 175.034V173.335H351.512V177.515H341.727V178.472H351.824V180.151H339.246V175.933H349.012V175.034H339.207ZM38.0742 202.433C38.0742 205.128 39.041 207.833 41.5703 209.19L40.2031 211.007C38.6016 210.187 37.5371 208.751 36.9121 207.022C36.2969 208.907 35.2324 210.499 33.6211 211.437L32.1953 209.562C34.7637 208.077 35.7109 205.177 35.7305 202.433V202.022H32.8594V200.03H35.7305V197.628H38.0547V200.03H40.8672V202.022H38.0742V202.433ZM39.832 205.792V203.761H41.9219V197.315H44.2656V213.976H41.9219V205.792H39.832ZM45.5352 214.796V197.022H47.8984V214.796H45.5352ZM64.3633 198.585V200.655C64.3535 203.243 64.3535 205.704 63.543 209.562L61.0625 209.327C61.4141 207.853 61.6191 206.544 61.7461 205.343L51.4336 205.851L51.1211 203.858L61.873 203.468C61.9121 202.491 61.9219 201.573 61.9219 200.655V200.577H51.668V198.585H64.3633ZM49.8125 212.667V210.636H66.0234V212.667H49.8125ZM75.6719 199.737V201.71H67.0781V199.737H70.1641V197.511H72.625V199.737H75.6719ZM67.4883 206.729C67.4883 204.259 69.1484 202.521 71.4141 202.511C73.6895 202.521 75.3105 204.259 75.3203 206.729C75.3105 209.21 73.6895 210.968 71.4141 210.968C69.1484 210.968 67.4883 209.21 67.4883 206.729ZM69.6758 206.729C69.6758 208.087 70.3789 208.858 71.4141 208.858C72.4102 208.858 73.123 208.087 73.1328 206.729C73.123 205.392 72.4102 204.581 71.4141 204.581C70.3789 204.581 69.6758 205.392 69.6758 206.729ZM76.3359 214.034V197.374H78.6602V204.249H80.1055V197.022H82.4688V214.796H80.1055V206.241H78.6602V214.034H76.3359ZM87.7031 198.429V200.655H91.7852V198.429H94.2852V206.612H91.0234V209.308C92.4004 209.239 93.7773 209.132 95.0664 208.956L95.2422 210.772C91.5215 211.437 87.5176 211.446 84.5 211.456L84.168 209.425C85.4766 209.425 86.9707 209.425 88.543 209.396V206.612H85.2617V198.429H87.7031ZM87.7031 204.659H91.7852V202.55H87.7031V204.659ZM96.0039 214.796V197.022H98.5039V204.132H100.926V206.202H98.5039V214.796H96.0039ZM117.938 210.675V212.726H101.668V210.675H105.301V206.319C103.924 205.489 103.094 204.229 103.094 202.667C103.094 199.786 105.906 197.892 109.773 197.882C113.621 197.892 116.463 199.786 116.473 202.667C116.463 204.2 115.662 205.44 114.324 206.271V210.675H117.938ZM105.555 202.667C105.555 204.405 107.225 205.479 109.773 205.479C112.283 205.479 114.002 204.405 114.012 202.667C114.002 200.88 112.283 199.845 109.773 199.854C107.225 199.845 105.555 200.88 105.555 202.667ZM107.762 210.675H111.805V207.218C111.17 207.345 110.486 207.413 109.773 207.413C109.061 207.413 108.387 207.345 107.762 207.228V210.675ZM48.7773 253.675V255.667H42.0391V258.753H39.5195V255.667H32.5078V253.675H48.7773ZM34.1875 249.046C34.1875 246.79 36.7656 245.374 40.6328 245.354C44.4805 245.374 47.0488 246.79 47.0586 249.046C47.0488 251.312 44.4805 252.718 40.6328 252.718C36.7656 252.718 34.1875 251.312 34.1875 249.046ZM34.4414 262.483V257.171H36.9609V260.472H46.9805V262.483H34.4414ZM36.8828 249.046C36.873 250.13 38.3379 250.716 40.6328 250.726C42.9277 250.716 44.3828 250.13 44.3828 249.046C44.3828 247.913 42.9277 247.327 40.6328 247.327C38.3379 247.327 36.873 247.913 36.8828 249.046ZM66.0625 253.421V255.374H49.8125V253.421H56.7266V251.897H51.7852V245.804H64.1094V247.737H54.2656V249.944H64.207V251.897H59.168V253.421H66.0625ZM51.668 259.554C51.668 257.444 54.0117 256.272 57.8984 256.272C61.7559 256.272 64.0703 257.444 64.0898 259.554C64.0703 261.634 61.7559 262.815 57.8984 262.815C54.0117 262.815 51.668 261.634 51.668 259.554ZM54.207 259.554C54.1973 260.481 55.4375 260.921 57.8984 260.921C60.3105 260.921 61.5801 260.481 61.5898 259.554C61.5801 258.636 60.3105 258.167 57.8984 258.167C55.4375 258.167 54.1973 258.636 54.207 259.554ZM72.0586 245.979C73.4746 245.97 74.7148 246.497 75.5645 247.366H79.5977V245.022H82.0781V255.433H79.5977V253.304H75.5449C74.6953 254.163 73.4648 254.681 72.0586 254.671C69.3633 254.681 67.3125 252.845 67.332 250.335C67.3125 247.796 69.3633 245.97 72.0586 245.979ZM69.6953 250.335C69.6855 251.702 70.6719 252.571 72.0586 252.562C73.3965 252.571 74.373 251.702 74.3828 250.335C74.373 248.919 73.3965 248.099 72.0586 248.108C70.6719 248.099 69.6855 248.919 69.6953 250.335ZM69.8906 259.3C69.8906 257.093 72.2441 255.794 76.0039 255.804C79.7637 255.794 82.127 257.093 82.1367 259.3C82.127 261.507 79.7637 262.806 76.0039 262.796C72.2441 262.806 69.8906 261.507 69.8906 259.3ZM72.332 259.3C72.332 260.335 73.6504 260.862 76.0039 260.862C78.4062 260.862 79.6855 260.335 79.6953 259.3C79.6855 258.235 78.4062 257.708 76.0039 257.698C73.6504 257.708 72.332 258.235 72.332 259.3ZM76.6289 249.339C76.707 249.651 76.7461 249.993 76.7461 250.335C76.7461 250.677 76.707 250.999 76.6387 251.312H79.5977V249.339H76.6289ZM90.8672 247.815C90.8574 249.974 92.1172 252.044 94.9297 252.913L93.6016 254.847C91.7168 254.222 90.3984 253.011 89.6367 251.458C88.8652 253.245 87.4883 254.651 85.457 255.335L84.1094 253.382C87.0781 252.396 88.3477 250.032 88.3672 247.581V245.96H90.8672V247.815ZM86.5703 259.358C86.5605 257.2 88.9141 255.921 92.6641 255.921C96.3457 255.921 98.6504 257.2 98.6602 259.358C98.6504 261.536 96.3457 262.806 92.6641 262.796C88.9141 262.806 86.5605 261.536 86.5703 259.358ZM89.0703 259.358C89.0508 260.364 90.3301 260.843 92.6641 260.843C94.9688 260.843 96.1992 260.364 96.1992 259.358C96.1992 258.392 94.9688 257.874 92.6641 257.874C90.3301 257.874 89.0508 258.392 89.0703 259.358ZM95.9844 255.569V245.022H98.4844V249.183H100.887V251.253H98.4844V255.569H95.9844ZM109.773 245.276C113.865 245.276 116.229 246.351 116.238 248.304C116.229 250.286 113.865 251.351 109.773 251.351C105.672 251.351 103.289 250.286 103.289 248.304C103.289 246.351 105.672 245.276 109.773 245.276ZM101.668 254.163V252.19H117.879V254.163H101.668ZM103.543 257.015V255.198H115.906V259.729H106.004V260.804H116.375V262.679H103.562V257.991H113.445V257.015H103.543ZM105.906 248.304C105.896 249.173 107.166 249.515 109.773 249.515C112.4 249.515 113.66 249.173 113.66 248.304C113.66 247.513 112.4 247.093 109.773 247.093C107.166 247.093 105.896 247.513 105.906 248.304ZM128.523 245.784C130.789 245.765 132.596 247.063 133.084 248.968H136.062V245.022H138.543V254.573H136.062V250.96H133.094C132.635 252.913 130.809 254.241 128.523 254.241C125.789 254.241 123.777 252.464 123.797 249.983C123.777 247.552 125.789 245.765 128.523 245.784ZM126.16 249.983C126.15 251.312 127.127 252.151 128.523 252.151C129.871 252.151 130.838 251.312 130.848 249.983C130.838 248.655 129.871 247.845 128.523 247.854C127.127 247.845 126.15 248.655 126.16 249.983ZM126.688 262.601V255.354H129.148V257.073H136.062V255.354H138.543V262.601H126.688ZM129.148 260.589H136.062V258.987H129.148V260.589ZM157.117 258.772V260.823H140.848V258.772H147.703V256.097H142.723V250.12H152.781V248.167H142.703V246.175H155.242V252.073H145.223V254.065H155.652V256.097H150.184V258.772H157.117ZM172.625 253.245V255.237H160.047V246.507H172.488V248.519H162.508V253.245H172.625ZM158.133 260.628V258.577H174.402V260.628H158.133ZM183.992 247.737V249.71H175.398V247.737H178.484V245.511H180.945V247.737H183.992ZM175.809 254.729C175.809 252.259 177.469 250.521 179.734 250.511C182.01 250.521 183.631 252.259 183.641 254.729C183.631 257.21 182.01 258.968 179.734 258.968C177.469 258.968 175.809 257.21 175.809 254.729ZM177.996 254.729C177.996 256.087 178.699 256.858 179.734 256.858C180.73 256.858 181.443 256.087 181.453 254.729C181.443 253.392 180.73 252.581 179.734 252.581C178.699 252.581 177.996 253.392 177.996 254.729ZM184.656 262.034V245.374H186.98V252.249H188.426V245.022H190.789V262.796H188.426V254.241H186.98V262.034H184.656ZM208.914 254.827V256.819H202V262.796H199.539V256.819H192.703V254.827H208.914ZM193.504 251.839C197.098 251.399 199.09 249.661 199.354 247.913H194.168V245.96H207.469V247.913H202.283C202.537 249.661 204.5 251.399 208.152 251.839L207.254 253.792C204.129 253.372 201.893 252.044 200.818 250.218C199.734 252.044 197.518 253.372 194.422 253.792L193.504 251.839ZM215.691 249.495C215.682 252.376 216.482 255.345 218.914 256.897L217.566 258.831C216.023 257.903 215.057 256.36 214.49 254.544C213.855 256.556 212.791 258.245 211.18 259.222L209.656 257.386C212.293 255.755 213.27 252.62 213.27 249.612V246.546H215.691V249.495ZM217.039 253.05V251.019H219.344V245.276H221.668V261.976H219.344V253.05H217.039ZM223.016 262.796V245.022H225.398V262.796H223.016ZM243.543 258.675V260.726H227.273V258.675H230.906V254.319C229.529 253.489 228.699 252.229 228.699 250.667C228.699 247.786 231.512 245.892 235.379 245.882C239.227 245.892 242.068 247.786 242.078 250.667C242.068 252.2 241.268 253.44 239.93 254.271V258.675H243.543ZM231.16 250.667C231.16 252.405 232.83 253.479 235.379 253.479C237.889 253.479 239.607 252.405 239.617 250.667C239.607 248.88 237.889 247.845 235.379 247.854C232.83 247.845 231.16 248.88 231.16 250.667ZM233.367 258.675H237.41V255.218C236.775 255.345 236.092 255.413 235.379 255.413C234.666 255.413 233.992 255.345 233.367 255.228V258.675ZM246.863 261.175C245.945 261.175 245.203 260.442 245.223 259.534C245.203 258.636 245.945 257.903 246.863 257.913C247.732 257.903 248.484 258.636 248.484 259.534C248.484 260.442 247.732 261.175 246.863 261.175Z" fill="white"/>
<defs>
<filter id="filter0_d_245_513" x="90.3203" y="0" width="392.271" height="124.595" filterUnits="userSpaceOnUse" color-interpolation-filters="sRGB">
<feFlood flood-opacity="0" result="BackgroundImageFix"/>
<feColorMatrix in="SourceAlpha" type="matrix" values="0 0 0 0 0 0 0 0 0 0 0 0 0 0 0 0 0 0 127 0" result="hardAlpha"/>
<feOffset dy="4"/>
<feGaussianBlur stdDeviation="2"/>
<feComposite in2="hardAlpha" operator="out"/>
<feColorMatrix type="matrix" values="0 0 0 0 0 0 0 0 0 0 0 0 0 0 0 0 0 0 0.05 0"/>
<feBlend mode="normal" in2="BackgroundImageFix" result="effect1_dropShadow_245_513"/>
<feBlend mode="normal" in="SourceGraphic" in2="effect1_dropShadow_245_513" result="shape"/>
</filter>
<filter id="filter1_d_245_513" x="0" y="116.595" width="392.271" height="215.404" filterUnits="userSpaceOnUse" color-interpolation-filters="sRGB">
<feFlood flood-opacity="0" result="BackgroundImageFix"/>
<feColorMatrix in="SourceAlpha" type="matrix" values="0 0 0 0 0 0 0 0 0 0 0 0 0 0 0 0 0 0 127 0" result="hardAlpha"/>
<feOffset dy="4"/>
<feGaussianBlur stdDeviation="2"/>
<feComposite in2="hardAlpha" operator="out"/>
<feColorMatrix type="matrix" values="0 0 0 0 0 0 0 0 0 0 0 0 0 0 0 0 0 0 0.05 0"/>
<feBlend mode="normal" in2="BackgroundImageFix" result="effect1_dropShadow_245_513"/>
<feBlend mode="normal" in="SourceGraphic" in2="effect1_dropShadow_245_513" result="shape"/>
</filter>
</defs>
</svg>
