<svg width="425" height="236" viewBox="0 0 425 236" fill="none" xmlns="http://www.w3.org/2000/svg">
<g filter="url(#filter0_d_245_506)">
<path d="M138.982 140.406C138.982 133.75 144.378 128.354 151.034 128.354H408.948C415.604 128.354 421 133.75 421 140.406V195.243C421 201.899 415.604 207.295 408.948 207.295H151.034C144.378 207.295 138.982 201.899 138.982 195.243V140.406Z" fill="white"/>
<path d="M400.813 194.64H354.111C357.968 217.539 386.852 226.277 400.813 227.783C385.868 216.454 394.586 200.967 400.813 194.64Z" fill="white"/>
</g>
<path d="M182.146 151.392V157.923H175.599V151.392H182.146ZM177.052 156.751H180.692V152.595H177.052V156.751ZM177.177 163.861V159.423H178.661V162.658H186.646V163.861H177.177ZM184.567 160.408V150.142H186.052V154.329H188.083V155.579H186.052V160.408H184.567ZM193.849 152.251C193.841 154.212 195.114 155.962 197.239 156.658L196.427 157.814C194.888 157.251 193.755 156.173 193.146 154.767C192.544 156.369 191.325 157.626 189.63 158.236L188.833 157.048C191.067 156.283 192.364 154.415 192.38 152.314V150.939H193.849V152.251ZM191.13 161.486C191.122 159.79 192.919 158.806 195.864 158.814C198.794 158.806 200.591 159.79 200.599 161.486C200.591 163.173 198.794 164.134 195.864 164.126C192.919 164.134 191.122 163.173 191.13 161.486ZM192.599 161.486C192.591 162.415 193.81 162.962 195.864 162.954C197.903 162.962 199.122 162.415 199.13 161.486C199.122 160.525 197.903 159.97 195.864 159.97C193.81 159.97 192.591 160.525 192.599 161.486ZM196.114 154.22V153.001H199.067V150.158H200.552V158.423H199.067V154.22H196.114ZM207.724 152.642C207.716 154.408 208.981 156.134 211.099 156.861L210.333 158.017C208.763 157.478 207.599 156.353 206.989 154.97C206.38 156.509 205.153 157.744 203.489 158.329L202.724 157.158C204.872 156.423 206.216 154.556 206.208 152.658V152.267H203.177V151.064H210.724V152.267H207.724V152.642ZM204.896 160.439V159.236H214.38V164.158H212.896V160.439H204.896ZM210.302 154.939V153.72H212.896V150.158H214.38V158.533H212.896V154.939H210.302ZM228.146 150.173V160.345H226.661V150.173H228.146ZM216.817 154.579C216.825 152.556 218.435 151.119 220.552 151.111C222.661 151.119 224.271 152.556 224.271 154.579C224.271 156.634 222.661 158.064 220.552 158.064C218.435 158.064 216.825 156.634 216.817 154.579ZM218.271 154.579C218.263 155.9 219.247 156.767 220.552 156.767C221.833 156.767 222.817 155.9 222.817 154.579C222.817 153.29 221.833 152.408 220.552 152.408C219.247 152.408 218.263 153.29 218.271 154.579ZM218.989 163.861V159.314H220.489V162.658H228.567V163.861H218.989ZM245.599 151.501V152.876C245.591 154.603 245.591 156.54 245.067 159.408L243.567 159.251C244.106 156.54 244.106 154.556 244.114 152.876V152.704H235.614V151.501H245.599ZM234.271 162.267V161.033H239.13V156.095H240.599V161.033H247.036V162.267H234.271ZM255.896 151.22V152.001C255.88 152.939 255.88 154.329 255.536 156.142L254.067 156.001C254.372 154.454 254.419 153.322 254.435 152.439H248.833V151.22H255.896ZM247.989 157.345C248.849 157.345 249.825 157.337 250.849 157.314V154.361H252.317V157.267C253.817 157.204 255.364 157.095 256.771 156.892L256.864 157.97C253.942 158.486 250.599 158.54 248.13 158.548L247.989 157.345ZM250.114 163.861V159.72H251.599V162.658H259.63V163.861H250.114ZM257.661 160.673V150.158H259.177V154.611H261.099V155.861H259.177V160.673H257.661ZM266.896 152.267C266.896 153.853 268.177 155.439 270.255 156.064L269.552 157.236C267.958 156.744 266.778 155.712 266.169 154.423C265.536 155.845 264.302 157.025 262.661 157.564L261.927 156.392C264.044 155.689 265.411 153.962 265.411 152.251V152.033H262.364V150.829H269.911V152.033H266.896V152.267ZM264.427 159.189V158.001H273.583V161.501H265.942V162.829H274.083V164.001H264.458V160.376H272.114V159.189H264.427ZM269.505 154.408V153.204H272.114V150.158H273.583V157.361H272.114V154.408H269.505ZM292.427 157.517V158.689H279.63V157.517H285.286V156.298H281.302V150.533H290.864V151.704H282.802V152.845H290.505V153.954H282.802V155.142H290.958V156.298H286.771V157.517H292.427ZM281.177 161.876C281.177 160.408 282.919 159.603 286.036 159.611C289.106 159.603 290.856 160.408 290.864 161.876C290.856 163.353 289.106 164.134 286.036 164.126C282.919 164.134 281.177 163.353 281.177 161.876ZM282.661 161.876C282.653 162.634 283.825 163.017 286.036 163.001C288.216 163.017 289.38 162.634 289.38 161.876C289.38 161.119 288.216 160.72 286.036 160.72C283.825 160.72 282.653 161.119 282.661 161.876ZM306.255 156.751V157.954H293.489V156.751H306.255ZM294.161 154.845C296.7 154.572 298.708 153.431 298.872 152.064H294.661V150.845H305.114V152.064H300.856C301.028 153.423 303.005 154.572 305.599 154.845L305.067 156.017C302.638 155.736 300.63 154.712 299.872 153.236C299.099 154.712 297.106 155.736 294.677 156.017L294.161 154.845ZM295.005 161.595C295.005 159.97 296.825 159.033 299.864 159.033C302.88 159.033 304.685 159.97 304.692 161.595C304.685 163.22 302.88 164.134 299.864 164.126C296.825 164.134 295.005 163.22 295.005 161.595ZM296.505 161.595C296.497 162.478 297.724 162.962 299.864 162.954C301.974 162.962 303.208 162.478 303.208 161.595C303.208 160.689 301.974 160.204 299.864 160.189C297.724 160.204 296.497 160.689 296.505 161.595ZM318.911 150.158V164.189H317.427V150.158H318.911ZM307.802 156.111C307.802 153.119 309.31 151.212 311.427 151.204C313.505 151.212 315.036 153.119 315.036 156.111C315.036 159.134 313.505 161.04 311.427 161.033C309.31 161.04 307.802 159.134 307.802 156.111ZM309.239 156.111C309.231 158.337 310.122 159.704 311.427 159.704C312.708 159.704 313.599 158.337 313.599 156.111C313.599 153.915 312.708 152.54 311.427 152.533C310.122 152.54 309.231 153.915 309.239 156.111ZM329.911 159.408C329.911 160.611 330.505 161.884 331.778 162.642C333.06 161.822 333.692 160.486 333.692 159.408V158.736H335.146V159.408C335.138 160.861 336.099 162.267 337.927 162.861L337.192 163.954C335.81 163.478 334.864 162.54 334.38 161.4C333.935 162.525 333.099 163.548 331.817 164.079C330.474 163.572 329.622 162.579 329.192 161.439C328.685 162.54 327.763 163.47 326.442 163.954L325.692 162.861C327.489 162.22 328.466 160.759 328.474 159.408V158.736H329.911V159.408ZM325.333 154.251C325.341 152.29 326.919 150.947 329.067 150.939C331.208 150.947 332.786 152.29 332.786 154.251C332.786 156.189 331.208 157.533 329.067 157.533C326.919 157.533 325.341 156.189 325.333 154.251ZM326.786 154.251C326.778 155.47 327.739 156.298 329.067 156.298C330.38 156.298 331.333 155.47 331.333 154.251C331.333 153.025 330.38 152.197 329.067 152.204C327.739 152.197 326.778 153.025 326.786 154.251ZM335.177 158.142V150.173H336.661V158.142H335.177ZM350.208 154.251V155.439H340.567V150.658H342.036V154.251H350.208ZM338.864 158.392V157.204H351.677V158.392H338.864ZM340.458 163.829V159.72H341.942V162.611H350.302V163.829H340.458ZM364.739 150.158V164.158H363.302V150.158H364.739ZM353.208 160.861V151.829H358.521V153.048H354.661V159.626C356.489 159.611 357.724 159.533 359.177 159.22L359.302 160.47C357.7 160.79 356.317 160.861 354.13 160.861H353.208ZM357.567 156.658V155.423H360.442V150.454H361.849V163.454H360.442V156.658H357.567ZM369.052 161.751L367.802 166.064H366.474L367.302 161.751H369.052ZM178.849 170.204C180.755 170.212 182.138 171.822 182.364 174.408H185.255V169.158H186.724V183.189H185.255V175.611H182.38C182.216 178.345 180.802 180.04 178.849 180.033C176.763 180.04 175.286 178.134 175.302 175.111C175.286 172.119 176.763 170.212 178.849 170.204ZM176.708 175.111C176.716 177.337 177.583 178.704 178.849 178.704C180.114 178.704 180.981 177.337 180.989 175.111C180.981 172.915 180.114 171.54 178.849 171.533C177.583 171.54 176.716 172.915 176.708 175.111ZM201.052 181.658V182.861H191.177V178.47H192.661V181.658H201.052ZM189.224 177.158V170.283H192.802V171.486H190.661V175.954C191.364 175.931 192.106 175.861 192.942 175.673L193.067 176.892C191.833 177.158 190.856 177.158 189.849 177.158H189.224ZM193.552 177.158V170.283H197.458V171.486H195.021V175.962C196.161 175.947 196.981 175.876 197.911 175.658L198.067 176.861C196.864 177.126 195.896 177.158 194.271 177.158H193.552ZM196.849 174.173V172.97H199.224V169.173H200.677V179.329H199.224V174.173H196.849ZM218.239 169.829V171.017H213.974C214.06 172.54 216.075 173.884 218.677 174.204L218.114 175.376C215.716 175.064 213.747 173.947 212.997 172.376C212.231 173.947 210.271 175.064 207.88 175.376L207.317 174.204C209.935 173.884 211.935 172.533 212.005 171.017H207.786V169.829H218.239ZM206.599 177.486V176.283H219.411V177.486H213.849V180.204H212.38V177.486H206.599ZM208.192 182.861V178.861H209.677V181.658H217.989V182.861H208.192ZM232.036 169.158V183.189H230.552V169.158H232.036ZM221.224 179.829V170.329H222.708V173.923H226.474V170.329H227.942V179.829H221.224ZM222.708 178.611H226.474V175.095H222.708V178.611ZM247.067 176.173V177.376H241.521V180.095H240.021V177.376H234.255V176.173H247.067ZM235.661 172.329C235.653 170.579 237.638 169.494 240.646 169.486C243.653 169.494 245.622 170.579 245.614 172.329C245.622 174.072 243.653 175.158 240.646 175.158C237.638 175.158 235.653 174.072 235.661 172.329ZM235.864 182.861V178.751H237.349V181.642H245.646V182.861H235.864ZM237.255 172.329C237.239 173.337 238.599 173.954 240.646 173.954C242.7 173.954 244.044 173.337 244.052 172.329C244.044 171.29 242.7 170.681 240.646 170.673C238.599 170.681 237.239 171.29 237.255 172.329ZM260.88 175.97V177.158H248.099V175.97H253.771V174.486H249.692V169.798H259.302V170.97H251.161V173.298H259.396V174.486H255.208V175.97H260.88ZM249.614 180.611C249.614 178.986 251.435 178.072 254.474 178.064C257.489 178.072 259.294 178.986 259.302 180.611C259.294 182.236 257.489 183.15 254.474 183.158C251.435 183.15 249.614 182.236 249.614 180.611ZM251.114 180.611C251.106 181.509 252.333 182.001 254.474 181.986C256.583 182.001 257.817 181.509 257.817 180.611C257.817 179.728 256.583 179.22 254.474 179.22C252.333 179.22 251.106 179.728 251.114 180.611ZM268.302 169.392C271.458 169.384 273.294 170.236 273.302 171.798C273.294 173.369 271.458 174.22 268.302 174.22C265.146 174.22 263.294 173.369 263.302 171.798C263.294 170.236 265.146 169.384 268.302 169.392ZM261.927 176.267V175.079H274.692V176.267H261.927ZM263.458 178.454V177.345H273.083V180.626H264.927V181.876H273.474V183.017H263.474V179.548H271.614V178.454H263.458ZM264.849 171.798C264.841 172.665 266.075 173.111 268.302 173.111C270.544 173.111 271.778 172.665 271.771 171.798C271.778 170.97 270.544 170.486 268.302 170.486C266.075 170.486 264.841 170.97 264.849 171.798ZM290.567 169.158V174.829H292.817V176.064H290.567V183.158H289.099V169.158H290.567ZM279.583 172.564V171.345H283.036V169.345H284.521V171.345H287.88V172.564H279.583ZM280.302 176.845C280.302 174.939 281.771 173.595 283.786 173.595C285.794 173.595 287.263 174.939 287.271 176.845C287.263 178.767 285.794 180.103 283.786 180.111C281.771 180.103 280.302 178.767 280.302 176.845ZM281.724 176.845C281.716 178.064 282.591 178.876 283.786 178.861C284.974 178.876 285.841 178.064 285.849 176.845C285.841 175.65 284.974 174.822 283.786 174.814C282.591 174.822 281.716 175.65 281.724 176.845ZM300.63 170.345V171.533H303.677V169.173H305.161V179.376H303.677V175.751H300.63V176.97H294.13V170.345H300.63ZM295.599 175.798H299.177V171.548H295.599V175.798ZM296.021 182.861V178.439H297.521V181.658H305.474V182.861H296.021ZM300.63 174.533H303.677V172.751H300.63V174.533ZM318.333 173.329V174.861H324.021V176.064H311.208V174.861H316.864V173.329H318.333ZM311.864 173.048C314.356 172.876 316.349 171.908 316.591 170.704H312.396V169.564H322.849V170.704H318.606C318.849 171.915 320.817 172.876 323.349 173.048L322.864 174.158C320.396 173.947 318.349 173.048 317.614 171.65C316.864 173.04 314.817 173.947 312.349 174.158L311.864 173.048ZM312.396 178.923V177.783H316.864V176.548H318.333V177.783H322.802V178.923H312.396ZM313.349 181.361C313.341 180.15 314.864 179.525 317.583 179.517C320.302 179.525 321.856 180.15 321.864 181.361C321.856 182.587 320.302 183.228 317.583 183.22C314.864 183.228 313.341 182.587 313.349 181.361ZM314.864 181.361C314.849 181.923 315.833 182.22 317.583 182.204C319.364 182.22 320.325 181.923 320.333 181.361C320.325 180.798 319.364 180.54 317.583 180.533C315.833 180.54 314.849 180.798 314.864 181.361ZM331.427 169.392C334.583 169.384 336.419 170.236 336.427 171.798C336.419 173.369 334.583 174.22 331.427 174.22C328.271 174.22 326.419 173.369 326.427 171.798C326.419 170.236 328.271 169.384 331.427 169.392ZM325.052 176.267V175.079H337.817V176.267H325.052ZM326.583 178.454V177.345H336.208V180.626H328.052V181.876H336.599V183.017H326.599V179.548H334.739V178.454H326.583ZM327.974 171.798C327.966 172.665 329.2 173.111 331.427 173.111C333.669 173.111 334.903 172.665 334.896 171.798C334.903 170.97 333.669 170.486 331.427 170.486C329.2 170.486 327.966 170.97 327.974 171.798ZM350.005 169.158V174.845H352.036V176.064H350.005V183.158H348.521V169.158H350.005ZM338.755 179.22C340.802 177.087 341.544 174.681 341.692 171.876H339.255V170.658H343.099C343.091 174.158 342.466 177.345 339.927 180.048L338.755 179.22ZM342.755 180.158C344.841 177.72 345.45 174.861 345.56 171.876H343.552V170.658H346.958C346.958 174.197 346.513 177.931 343.942 180.97L342.755 180.158ZM365.521 180.173V181.408H352.708V180.173H355.771V176.517C354.622 175.884 353.919 174.884 353.927 173.626C353.919 171.423 356.083 169.978 359.083 169.97C362.091 169.978 364.255 171.423 364.255 173.626C364.255 174.861 363.583 175.853 362.458 176.486V180.173H365.521ZM355.364 173.626C355.364 175.126 356.888 176.103 359.083 176.111C361.263 176.103 362.81 175.126 362.817 173.626C362.81 172.119 361.263 171.158 359.083 171.158C356.888 171.158 355.364 172.119 355.364 173.626ZM357.239 180.173H360.958V177.064C360.388 177.197 359.755 177.267 359.083 177.267C358.427 177.267 357.802 177.197 357.239 177.064V180.173ZM368.833 178.47C368.856 176.423 369.458 175.798 370.489 175.158C371.146 174.759 371.646 174.181 371.646 173.361C371.646 172.384 370.896 171.767 369.958 171.767C369.114 171.767 368.294 172.283 368.224 173.439H366.536C366.599 171.447 368.099 170.361 369.958 170.361C371.989 170.361 373.349 171.579 373.349 173.361C373.349 174.619 372.747 175.454 371.755 176.064C370.817 176.634 370.45 177.197 370.427 178.47V178.564H368.833V178.47ZM368.583 180.829C368.575 180.22 369.083 179.72 369.692 179.72C370.294 179.72 370.794 180.22 370.802 180.829C370.794 181.439 370.294 181.931 369.692 181.939C369.083 181.931 368.575 181.439 368.583 180.829Z" fill="#5E5A5A"/>
<g filter="url(#filter1_d_245_506)">
<path d="M238.713 65.6835C238.713 59.0273 233.317 53.6315 226.661 53.6315H16.0518C9.39561 53.6315 3.99974 59.0273 3.99974 65.6835V124.437C3.99974 131.093 9.39561 136.489 16.0518 136.489H226.661C233.317 136.489 238.713 131.093 238.713 124.437V65.6835Z" fill="white"/>
<path d="M24.1869 123.835H70.8885C67.0318 146.733 38.1471 155.471 24.1869 156.978C39.1314 145.649 30.4138 130.162 24.1869 123.835Z" fill="white"/>
</g>
<g filter="url(#filter2_d_245_506)">
<path d="M85.9541 12.052C85.9541 5.39587 91.35 0 98.0061 0H355.919C362.576 0 367.971 5.39587 367.971 12.052V53.0289C367.971 59.6851 362.576 65.0809 355.919 65.0809H98.0061C91.35 65.0809 85.9541 59.6851 85.9541 53.0289V12.052Z" fill="white"/>
<path d="M347.784 52.4263H301.083C304.939 75.3251 333.824 84.0629 347.784 85.5694C332.84 74.2405 341.557 58.7536 347.784 52.4263Z" fill="white"/>
</g>
<path d="M109.196 35.2025C110.009 35.2025 111.024 35.1947 112.103 35.1635V32.89C110.595 32.6244 109.587 31.4916 109.587 29.9213C109.587 28.14 110.915 26.9213 112.79 26.9213C114.696 26.9213 116.032 28.14 116.024 29.9213C116.032 31.476 115.032 32.6088 113.524 32.8822V35.101C114.524 35.0463 115.509 34.9681 116.368 34.8431L116.478 35.9369C114.181 36.3353 111.235 36.4213 109.384 36.4213L109.196 35.2025ZM110.931 29.9213C110.923 31.0228 111.72 31.726 112.79 31.7181C113.884 31.726 114.673 31.0228 114.665 29.9213C114.673 28.851 113.884 28.1166 112.79 28.1244C111.72 28.1166 110.923 28.851 110.931 29.9213ZM117.009 38.9056V25.9056H118.384V31.3744H119.915V25.6244H121.321V39.6244H119.915V32.6088H118.384V38.9056H117.009ZM130.149 34.015V35.4994H136.728V34.015H138.212V39.4525H128.681V34.015H130.149ZM127.103 33.14V31.9056H139.868V33.14H127.103ZM127.79 29.8744C130.501 29.5228 132.72 28.0306 132.728 26.3744V25.7806H134.243V26.3744C134.251 27.9838 136.485 29.5463 139.165 29.8744L138.634 31.0463C136.368 30.7338 134.392 29.6556 133.493 28.1635C132.587 29.6635 130.603 30.7338 128.353 31.0463L127.79 29.8744ZM130.149 38.265H136.728V36.6556H130.149V38.265ZM151.931 25.5775V28.8588H153.978V30.0775H151.931V33.2806H150.446V25.5775H151.931ZM140.946 27.9838V26.8119H144.384V25.4994H145.868V26.8119H149.29V27.9838H140.946ZM141.712 30.8119C141.704 29.3978 143.063 28.515 145.118 28.515C147.173 28.515 148.509 29.3978 148.509 30.8119C148.509 32.2338 147.173 33.101 145.118 33.0931C143.063 33.101 141.704 32.2338 141.712 30.8119ZM142.884 35.0463V33.9369H151.931V37.1869H144.368V38.3588H152.415V39.4838H142.915V36.14H150.462V35.0463H142.884ZM143.149 30.8119C143.134 31.5697 143.907 32.015 145.118 32.015C146.321 32.015 147.103 31.5697 147.118 30.8119C147.103 30.0541 146.321 29.5853 145.118 29.5775C143.907 29.5853 143.134 30.0541 143.149 30.8119ZM167.978 25.9056V31.2494H169.462V25.6244H170.868V39.6244H169.462V32.4681H167.978V38.9525H166.603V25.9056H167.978ZM159.024 36.0619V27.3588H162.056V28.5775H160.384V34.7963C160.876 34.7728 161.454 34.7025 162.103 34.5463L162.228 35.7963C161.103 36.0385 160.243 36.0619 159.603 36.0619H159.024ZM162.634 36.0619V27.3588H165.743V28.5775H163.978V34.8041C164.571 34.7885 165.243 34.7181 165.978 34.515L166.103 35.765C164.978 36.0463 164.056 36.0619 163.228 36.0619H162.634ZM188.056 25.6244V39.6556H186.587V32.1244H184.024V30.89H186.587V25.6244H188.056ZM176.884 28.0931V26.89H183.196V31.89H178.399V35.0775C180.634 35.0619 182.353 34.9916 184.306 34.64L184.431 35.8588C182.337 36.226 180.493 36.3119 178.024 36.3275H176.915V30.6869H181.759V28.0931H176.884ZM201.806 25.6244V33.9369H200.337V25.6244H201.806ZM191.087 32.8275V26.5306H192.571V31.5931C194.837 31.5775 196.813 31.4291 198.931 30.9838L199.134 32.2025C196.829 32.6869 194.712 32.8431 192.243 32.8275H191.087ZM192.337 36.8431C192.337 35.0775 194.173 34.0385 197.118 34.0463C200.04 34.0385 201.86 35.0775 201.868 36.8431C201.86 38.5697 200.04 39.601 197.118 39.5931C194.173 39.601 192.337 38.5697 192.337 36.8431ZM193.837 36.8431C193.821 37.8275 195.048 38.4135 197.118 38.4056C199.165 38.4135 200.376 37.8275 200.384 36.8431C200.376 35.8119 199.165 35.2494 197.118 35.2494C195.048 35.2494 193.821 35.8119 193.837 36.8431ZM210.431 25.8588C213.587 25.851 215.423 26.7025 215.431 28.265C215.423 29.8353 213.587 30.6869 210.431 30.6869C207.274 30.6869 205.423 29.8353 205.431 28.265C205.423 26.7025 207.274 25.851 210.431 25.8588ZM204.056 32.7338V31.5463H216.821V32.7338H204.056ZM205.587 34.9213V33.8119H215.212V37.0931H207.056V38.3431H215.603V39.4838H205.603V36.015H213.743V34.9213H205.587ZM206.978 28.265C206.97 29.1322 208.204 29.5775 210.431 29.5775C212.673 29.5775 213.907 29.1322 213.899 28.265C213.907 27.4369 212.673 26.9525 210.431 26.9525C208.204 26.9525 206.97 27.4369 206.978 28.265ZM232.696 25.6244V31.2963H234.946V32.5306H232.696V39.6244H231.228V25.6244H232.696ZM221.712 29.0306V27.8119H225.165V25.8119H226.649V27.8119H230.009V29.0306H221.712ZM222.431 33.3119C222.431 31.4056 223.899 30.0619 225.915 30.0619C227.923 30.0619 229.392 31.4056 229.399 33.3119C229.392 35.2338 227.923 36.5697 225.915 36.5775C223.899 36.5697 222.431 35.2338 222.431 33.3119ZM223.853 33.3119C223.845 34.5306 224.72 35.3431 225.915 35.3275C227.103 35.3431 227.97 34.5306 227.978 33.3119C227.97 32.1166 227.103 31.2885 225.915 31.2806C224.72 31.2885 223.845 32.1166 223.853 33.3119ZM242.759 26.8119V27.9994H245.806V25.64H247.29V35.8431H245.806V32.2181H242.759V33.4369H236.259V26.8119H242.759ZM237.728 32.265H241.306V28.015H237.728V32.265ZM238.149 39.3275V34.9056H239.649V38.1244H247.603V39.3275H238.149ZM242.759 30.9994H245.806V29.2181H242.759V30.9994ZM260.462 26.9213V28.1556H255.54V34.9838C257.892 34.9681 259.493 34.8822 261.337 34.5306L261.509 35.7494C259.493 36.1322 257.79 36.2181 255.149 36.2181H254.04V26.9213H260.462ZM259.665 31.8588V30.6244H263.556V25.6244H265.04V39.6556H263.556V31.8588H259.665ZM282.696 25.6244V34.1088H281.212V25.6244H282.696ZM271.274 28.2494V27.0463H274.806V25.515H276.306V27.0463H279.837V28.2494H271.274ZM272.103 31.3431C272.095 29.8197 273.478 28.8431 275.556 28.8431C277.649 28.8431 279.024 29.8197 279.024 31.3431C279.024 32.8744 277.649 33.851 275.556 33.8588C273.478 33.851 272.095 32.8744 272.103 31.3431ZM273.493 39.4525V34.7963H282.696V39.4525H273.493ZM273.524 31.3431C273.509 32.2103 274.313 32.726 275.556 32.7338C276.806 32.726 277.603 32.2103 277.618 31.3431C277.603 30.4916 276.806 29.9603 275.556 29.9525C274.313 29.9603 273.509 30.4916 273.524 31.3431ZM274.962 38.2494H281.243V35.9681H274.962V38.2494ZM297.696 31.3588V32.5463H284.915V31.3588H297.696ZM286.446 34.7963V33.6556H296.071V37.0463H287.915V38.2963H296.462V39.4681H286.462V35.9525H294.603V34.7963H286.446ZM286.587 30.3431V26.0306H296.04V27.2338H288.071V29.1556H296.181V30.3431H286.587ZM309.868 25.6244V31.3119H311.899V32.5306H309.868V39.6244H308.384V25.6244H309.868ZM298.618 35.6869C300.665 33.5541 301.407 31.1478 301.556 28.3431H299.118V27.1244H302.962C302.954 30.6244 302.329 33.8119 299.79 36.515L298.618 35.6869ZM302.618 36.6244C304.704 34.1869 305.313 31.3275 305.423 28.3431H303.415V27.1244H306.821C306.821 30.6635 306.376 34.3978 303.806 37.4369L302.618 36.6244ZM325.384 36.64V37.8744H312.571V36.64H315.634V32.9838C314.485 32.351 313.782 31.351 313.79 30.0931C313.782 27.89 315.946 26.4447 318.946 26.4369C321.954 26.4447 324.118 27.89 324.118 30.0931C324.118 31.3275 323.446 32.3197 322.321 32.9525V36.64H325.384ZM315.228 30.0931C315.228 31.5931 316.751 32.5697 318.946 32.5775C321.126 32.5697 322.673 31.5931 322.681 30.0931C322.673 28.5853 321.126 27.6244 318.946 27.6244C316.751 27.6244 315.228 28.5853 315.228 30.0931ZM317.103 36.64H320.821V33.5306C320.251 33.6635 319.618 33.7338 318.946 33.7338C318.29 33.7338 317.665 33.6635 317.103 33.5306V36.64ZM328.696 34.9369C328.72 32.89 329.321 32.265 330.353 31.6244C331.009 31.226 331.509 30.6478 331.509 29.8275C331.509 28.851 330.759 28.2338 329.821 28.2338C328.978 28.2338 328.157 28.7494 328.087 29.9056H326.399C326.462 27.9135 327.962 26.8275 329.821 26.8275C331.853 26.8275 333.212 28.0463 333.212 29.8275C333.212 31.0853 332.61 31.9213 331.618 32.5306C330.681 33.101 330.313 33.6635 330.29 34.9369V35.0306H328.696V34.9369ZM328.446 37.2963C328.438 36.6869 328.946 36.1869 329.556 36.1869C330.157 36.1869 330.657 36.6869 330.665 37.2963C330.657 37.9056 330.157 38.3978 329.556 38.4056C328.946 38.3978 328.438 37.9056 328.446 37.2963Z" fill="#5E5A5A"/>
<path d="M30.4658 91.7225V80.41H34.4971C37.1299 80.41 38.4189 81.9882 38.4189 84.0819C38.4189 86.1678 37.1221 87.7538 34.4971 87.7538H32.1846V91.7225H30.4658ZM32.1846 86.285H34.3252C35.9893 86.2928 36.6846 85.3553 36.6846 84.0819C36.6846 82.8007 35.9893 81.8866 34.3252 81.8788H32.1846V86.285ZM40.2314 80.41H42.3252L45.9033 89.1757H46.0439L49.6221 80.41H51.7158V91.7225H50.0752V83.5507H49.9658L46.6533 91.7069H45.2939L41.9658 83.535H41.8721V91.7225H40.2314V80.41ZM60.1846 83.3944C60.0752 82.3397 59.1533 81.7382 57.8564 81.7382C56.4736 81.7382 55.5986 82.4491 55.5908 83.41C55.5908 84.4803 56.7549 84.9022 57.6533 85.1132L58.7471 85.41C60.1924 85.7616 62.0049 86.5507 62.0127 88.5975C62.0049 90.5116 60.4814 91.91 57.8096 91.91C55.2783 91.91 53.6846 90.6444 53.5752 88.5819H55.2939C55.3955 89.8163 56.4893 90.4022 57.8096 90.41C59.2549 90.4022 60.3018 89.6757 60.3096 88.5663C60.3018 87.5819 59.3643 87.1835 58.1689 86.8632L56.8252 86.5038C55.0049 86.0038 53.8799 85.0819 53.8721 83.5038C53.8799 81.5507 55.6143 80.2538 57.9033 80.2538C60.2002 80.2538 61.8018 81.5663 61.8564 83.3944H60.1846ZM78.7627 79.0507V93.0507H77.2627V79.0507H78.7627ZM67.2627 89.3007C70.9814 87.5272 72.8018 85.0038 73.0908 81.7382H67.9346V80.5507H74.5908C74.5908 84.6522 72.8486 88.1991 68.0439 90.5038L67.2627 89.3007ZM91.9502 79.0507V83.1913H93.9814V84.4257H91.9502V89.2225H90.4502V79.0507H91.9502ZM80.9346 86.5038C84.2158 85.5194 86.2471 83.6522 86.5361 81.3475H81.5283V80.1132H88.1533C88.1533 83.785 85.6533 86.4491 81.5596 87.6913L80.9346 86.5038ZM83.0596 92.7538V88.1757H84.5596V91.5507H92.5283V92.7538H83.0596ZM106.825 79.0507V93.0507H105.403V79.0507H106.825ZM94.9346 85.0975C94.9346 82.0663 96.1221 80.1678 97.9502 80.1757C99.6533 80.1678 100.802 81.785 100.974 84.41H102.56V79.3163H103.981V92.3632H102.56V85.6132H100.981C100.849 88.3475 99.6846 90.0428 97.9502 90.035C96.1221 90.0428 94.9346 88.1366 94.9346 85.0975ZM96.3096 85.0975C96.3096 87.3241 96.9424 88.6366 97.9502 88.6288C98.9814 88.6366 99.6221 87.3241 99.6221 85.0975C99.6221 82.8632 98.9814 81.5585 97.9502 81.5663C96.9424 81.5585 96.3096 82.8632 96.3096 85.0975ZM125.31 86.9569V88.1757H122.06V93.0507H120.56V88.1757H117.216V93.0507H115.685V88.1757H112.497V86.9569H125.31ZM113.888 82.6757C113.896 80.785 115.911 79.5819 118.872 79.5819C121.833 79.5819 123.864 80.785 123.856 82.6757C123.864 84.5428 121.833 85.7225 118.872 85.7069C115.911 85.7225 113.896 84.5428 113.888 82.6757ZM115.419 82.6757C115.411 83.8241 116.794 84.535 118.872 84.535C120.958 84.535 122.333 83.8241 122.341 82.6757C122.333 81.496 120.958 80.7772 118.872 80.7694C116.794 80.7772 115.411 81.496 115.419 82.6757ZM131.2 81.6132C131.2 83.4882 132.505 85.2538 134.638 85.9725L133.872 87.1444C132.302 86.5975 131.13 85.4803 130.513 84.0663C129.903 85.6444 128.7 86.8632 127.06 87.4725L126.231 86.3007C128.45 85.5428 129.724 83.6522 129.731 81.5663V79.91H131.2V81.6132ZM128.481 92.7538V88.3632H129.997V91.5507H137.95V92.7538H128.481ZM135.856 89.3632V79.035H137.341V83.2538H139.372V84.5194H137.341V89.3632H135.856ZM152.981 90.0507V91.2694H140.169V90.0507H145.778V86.7225H147.247V90.0507H152.981ZM140.606 85.7538C143.302 85.3007 145.708 83.2225 145.716 81.0038V79.9413H147.278V81.0038C147.278 83.2225 149.716 85.3007 152.419 85.7538L151.778 86.9725C149.505 86.5272 147.427 85.121 146.505 83.2069C145.583 85.1132 143.521 86.5272 141.263 86.9725L140.606 85.7538ZM170.7 86.0663V87.2694H165.153V89.9882H163.653V87.2694H157.888V86.0663H170.7ZM159.294 82.2225C159.286 80.4725 161.271 79.3866 164.278 79.3788C167.286 79.3866 169.255 80.4725 169.247 82.2225C169.255 83.9647 167.286 85.0507 164.278 85.0507C161.271 85.0507 159.286 83.9647 159.294 82.2225ZM159.497 92.7538V88.6444H160.981V91.535H169.278V92.7538H159.497ZM160.888 82.2225C160.872 83.2303 162.231 83.8475 164.278 83.8475C166.333 83.8475 167.677 83.2303 167.685 82.2225C167.677 81.1835 166.333 80.5741 164.278 80.5663C162.231 80.5741 160.872 81.1835 160.888 82.2225ZM184.513 85.8632V87.0507H171.731V85.8632H177.403V84.3788H173.325V79.6913H182.935V80.8632H174.794V83.1913H183.028V84.3788H178.841V85.8632H184.513ZM173.247 90.5038C173.247 88.8788 175.067 87.9647 178.106 87.9569C181.122 87.9647 182.927 88.8788 182.935 90.5038C182.927 92.1288 181.122 93.0428 178.106 93.0507C175.067 93.0428 173.247 92.1288 173.247 90.5038ZM174.747 90.5038C174.739 91.4022 175.966 91.8944 178.106 91.8788C180.216 91.8944 181.45 91.4022 181.45 90.5038C181.45 89.621 180.216 89.1132 178.106 89.1132C175.966 89.1132 174.739 89.621 174.747 90.5038ZM190.7 82.6132C190.685 85.1678 192.231 87.746 194.403 88.7069L193.513 89.8788C191.903 89.1132 190.63 87.5428 189.974 85.6288C189.325 87.6835 188.036 89.371 186.356 90.1913L185.45 88.9413C187.653 87.9647 189.2 85.285 189.2 82.6132V80.2225H190.7V82.6132ZM195.669 93.0819V79.0507H197.153V93.0819H195.669ZM41.0283 107.207V111.879H31.3564V107.207H41.0283ZM29.8252 105.973V104.769H35.4658V103.316H31.4502V98.5507H40.9658V103.316H36.9346V104.769H42.5908V105.973H29.8252ZM32.8252 110.676H39.5908V108.394H32.8252V110.676ZM32.9033 102.129H39.4971V99.7538H32.9033V102.129ZM55.2471 98.0507V112.082H53.7627V98.0507H55.2471ZM44.1377 104.004C44.1377 101.012 45.6455 99.1053 47.7627 99.0975C49.8408 99.1053 51.3721 101.012 51.3721 104.004C51.3721 107.027 49.8408 108.933 47.7627 108.926C45.6455 108.933 44.1377 107.027 44.1377 104.004ZM45.5752 104.004C45.5674 106.23 46.458 107.598 47.7627 107.598C49.0439 107.598 49.9346 106.23 49.9346 104.004C49.9346 101.808 49.0439 100.433 47.7627 100.426C46.458 100.433 45.5674 101.808 45.5752 104.004ZM74.1846 106.082V107.285H68.4658V112.035H67.0127V107.285H61.3721V106.082H74.1846ZM62.9814 104.301V98.8007H72.5752V104.301H62.9814ZM64.4346 103.144H71.0908V99.9882H64.4346V103.144ZM86.8721 98.0507V105.598H85.4033V102.676H82.4971V101.473H85.4033V98.0507H86.8721ZM75.3877 104.738C78.7627 103.902 80.6221 102.246 80.8877 100.113H76.1064V98.8788H82.4814C82.4814 102.473 80.1064 104.855 75.9502 105.91L75.3877 104.738ZM77.6846 111.879V106.254H79.1689V107.894H85.4033V106.254H86.8721V111.879H77.6846ZM79.1689 110.676H85.4033V109.066H79.1689V110.676ZM101.075 98.0507V112.051H99.6689V98.0507H101.075ZM88.9971 108.004C91.9658 106.238 93.3877 103.887 93.6455 101.004H89.6533V99.785H95.1221C95.1143 101.152 94.9268 102.457 94.4971 103.676H96.7158V98.41H98.1221V111.363H96.7158V104.863H93.9814C93.1533 106.488 91.8174 107.91 89.8408 109.066L88.9971 108.004ZM118.138 104.332V105.551H108.31V99.2694H109.794V104.332H118.138ZM106.778 110.207V108.957H119.591V110.207H106.778ZM132.2 98.0507V112.051H130.731V106.676H127.474C127.028 107.777 126.435 108.84 125.622 109.816L124.403 109.019C126.435 106.598 127.099 103.754 127.224 100.769H125.247V99.5507H128.622C128.622 100.269 128.599 101.004 128.544 101.738H130.731V98.0507H132.2ZM120.466 108.019C122.427 105.949 123.231 103.566 123.388 100.769H120.981V99.5507H124.825C124.817 103.004 124.099 106.207 121.622 108.863L120.466 108.019ZM127.888 105.473H130.731V102.941H128.419C128.302 103.793 128.138 104.644 127.888 105.473ZM139.591 102.176C139.583 104.519 141.122 106.941 143.278 107.863L142.466 109.019C140.817 108.293 139.505 106.746 138.856 104.879C138.208 106.879 136.896 108.582 135.263 109.379L134.403 108.207C136.513 107.215 138.075 104.59 138.091 102.176V100.691H134.888V99.4569H142.778V100.691H139.591V102.176ZM144.544 112.051V98.0507H146.028V112.051H144.544ZM159.591 102.144V103.332H149.95V98.5507H151.419V102.144H159.591ZM148.247 106.285V105.098H161.06V106.285H148.247ZM149.841 111.723V107.613H151.325V110.504H159.685V111.723H149.841ZM177.591 98.0507V112.082H176.106V98.0507H177.591ZM166.481 104.004C166.481 101.012 167.989 99.1053 170.106 99.0975C172.185 99.1053 173.716 101.012 173.716 104.004C173.716 107.027 172.185 108.933 170.106 108.926C167.989 108.933 166.481 107.027 166.481 104.004ZM167.919 104.004C167.911 106.23 168.802 107.598 170.106 107.598C171.388 107.598 172.278 106.23 172.278 104.004C172.278 101.808 171.388 100.433 170.106 100.426C168.802 100.433 167.911 101.808 167.919 104.004ZM192.622 105.957V107.176H189.372V112.051H187.872V107.176H184.528V112.051H182.997V107.176H179.81V105.957H192.622ZM181.2 101.676C181.208 99.785 183.224 98.5819 186.185 98.5819C189.146 98.5819 191.177 99.785 191.169 101.676C191.177 103.543 189.146 104.723 186.185 104.707C183.224 104.723 181.208 103.543 181.2 101.676ZM182.731 101.676C182.724 102.824 184.106 103.535 186.185 103.535C188.271 103.535 189.646 102.824 189.653 101.676C189.646 100.496 188.271 99.7772 186.185 99.7694C184.106 99.7772 182.724 100.496 182.731 101.676ZM195.95 107.363C195.974 105.316 196.575 104.691 197.606 104.051C198.263 103.652 198.763 103.074 198.763 102.254C198.763 101.277 198.013 100.66 197.075 100.66C196.231 100.66 195.411 101.176 195.341 102.332H193.653C193.716 100.34 195.216 99.2538 197.075 99.2538C199.106 99.2538 200.466 100.473 200.466 102.254C200.466 103.512 199.864 104.348 198.872 104.957C197.935 105.527 197.567 106.09 197.544 107.363V107.457H195.95V107.363ZM195.7 109.723C195.692 109.113 196.2 108.613 196.81 108.613C197.411 108.613 197.911 109.113 197.919 109.723C197.911 110.332 197.411 110.824 196.81 110.832C196.2 110.824 195.692 110.332 195.7 109.723Z" fill="#5E5A5A"/>
<defs>
<filter id="filter0_d_245_506" x="134.982" y="128.354" width="290.018" height="107.429" filterUnits="userSpaceOnUse" color-interpolation-filters="sRGB">
<feFlood flood-opacity="0" result="BackgroundImageFix"/>
<feColorMatrix in="SourceAlpha" type="matrix" values="0 0 0 0 0 0 0 0 0 0 0 0 0 0 0 0 0 0 127 0" result="hardAlpha"/>
<feOffset dy="4"/>
<feGaussianBlur stdDeviation="2"/>
<feComposite in2="hardAlpha" operator="out"/>
<feColorMatrix type="matrix" values="0 0 0 0 0 0 0 0 0 0 0 0 0 0 0 0 0 0 0.05 0"/>
<feBlend mode="normal" in2="BackgroundImageFix" result="effect1_dropShadow_245_506"/>
<feBlend mode="normal" in="SourceGraphic" in2="effect1_dropShadow_245_506" result="shape"/>
</filter>
<filter id="filter1_d_245_506" x="0" y="53.6315" width="242.713" height="111.346" filterUnits="userSpaceOnUse" color-interpolation-filters="sRGB">
<feFlood flood-opacity="0" result="BackgroundImageFix"/>
<feColorMatrix in="SourceAlpha" type="matrix" values="0 0 0 0 0 0 0 0 0 0 0 0 0 0 0 0 0 0 127 0" result="hardAlpha"/>
<feOffset dy="4"/>
<feGaussianBlur stdDeviation="2"/>
<feComposite in2="hardAlpha" operator="out"/>
<feColorMatrix type="matrix" values="0 0 0 0 0 0 0 0 0 0 0 0 0 0 0 0 0 0 0.05 0"/>
<feBlend mode="normal" in2="BackgroundImageFix" result="effect1_dropShadow_245_506"/>
<feBlend mode="normal" in="SourceGraphic" in2="effect1_dropShadow_245_506" result="shape"/>
</filter>
<filter id="filter2_d_245_506" x="81.9541" y="0" width="290.018" height="93.5693" filterUnits="userSpaceOnUse" color-interpolation-filters="sRGB">
<feFlood flood-opacity="0" result="BackgroundImageFix"/>
<feColorMatrix in="SourceAlpha" type="matrix" values="0 0 0 0 0 0 0 0 0 0 0 0 0 0 0 0 0 0 127 0" result="hardAlpha"/>
<feOffset dy="4"/>
<feGaussianBlur stdDeviation="2"/>
<feComposite in2="hardAlpha" operator="out"/>
<feColorMatrix type="matrix" values="0 0 0 0 0 0 0 0 0 0 0 0 0 0 0 0 0 0 0.05 0"/>
<feBlend mode="normal" in2="BackgroundImageFix" result="effect1_dropShadow_245_506"/>
<feBlend mode="normal" in="SourceGraphic" in2="effect1_dropShadow_245_506" result="shape"/>
</filter>
</defs>
</svg>
